<svg width="70" height="70" viewBox="0 0 70 70" fill="none" xmlns="http://www.w3.org/2000/svg">
<g opacity="0.8">
<path fill-rule="evenodd" clip-rule="evenodd" d="M16.8224 34.0548C16.8224 35.2506 15.8307 36.2423 14.6349 36.2423C13.439 36.2423 12.4474 35.2506 12.4474 34.0548C12.4474 20.7256 22.714 9.72977 35.7807 8.62144V6.34644C35.7807 5.1506 36.7724 4.15894 37.9682 4.15894C39.164 4.15894 40.1557 5.1506 40.1557 6.34644V8.62144C53.2224 9.72977 63.489 20.7256 63.489 34.0548C63.489 35.2506 62.4974 36.2423 61.3015 36.2423C60.1057 36.2423 59.114 35.2506 59.114 34.0548C59.114 22.3881 49.6349 12.9089 37.9682 12.9089C26.3015 12.9089 16.8224 22.3881 16.8224 34.0548ZM11.7153 39.1589H64.0986C65.2945 39.1589 66.2861 40.1506 66.2861 41.3464C66.2861 42.5423 65.2945 43.5339 64.0986 43.5339H59.2278L51.6736 51.8464C48.3486 55.4631 46.5986 57.3589 44.207 58.4964C41.7861 59.6631 39.1611 59.8381 34.3778 60.1298L24.8986 60.7423C22.9445 60.8589 22.0403 60.9464 21.4278 61.2089C20.8445 61.4714 20.2611 62.0548 18.8028 63.5131L16.0903 66.2256C15.6528 66.6631 15.0986 66.8673 14.5445 66.8673C13.9903 66.8673 13.4361 66.6631 12.9986 66.2256C12.5918 65.8139 12.3637 65.2585 12.3637 64.6798C12.3637 64.101 12.5918 63.5456 12.9986 63.1339L15.7111 60.4214C17.3153 58.8173 18.2778 57.8548 19.6486 57.2423C20.9903 56.6298 22.3611 56.5131 24.6653 56.3964L34.1445 55.7839L34.6461 55.7489C38.6886 55.4806 40.7711 55.3406 42.3695 54.5589C43.9795 53.8093 45.3911 52.2693 48.1736 49.2331L48.2903 49.1048L53.3653 43.5339H49.0195L44.4403 48.1131C44.275 48.2687 44.137 48.4009 44.0261 48.5098C43.8801 48.6579 43.7263 48.7981 43.5653 48.9298C42.3403 50.0089 40.7653 50.6798 39.0445 50.7964C38.8403 50.8256 38.5195 50.8256 37.907 50.8256H27.6986C26.5028 50.8256 25.5111 49.8339 25.5111 48.6381C25.5111 47.4423 26.5028 46.4506 27.6986 46.4506H35.6611C35.3695 45.0214 34.2611 43.9131 32.8028 43.6214C32.4528 43.5339 31.782 43.5339 30.6445 43.5339H28.3695C25.5403 43.5339 24.1111 43.5339 22.9445 43.8256C22.0111 44.0298 21.1945 44.3798 20.4945 44.8173C19.4153 45.4589 18.4236 46.4506 16.4111 48.4631L7.4278 57.4756C6.58197 58.3214 5.18197 58.3214 4.33613 57.4756C3.92932 57.0639 3.70117 56.5085 3.70117 55.9298C3.70117 55.351 3.92932 54.7956 4.33613 54.3839L13.3195 45.4006C14.0486 44.6714 14.6611 44.0589 15.2153 43.5339H11.7153C10.5195 43.5339 9.5278 42.5423 9.5278 41.3464C9.5278 40.1506 10.5195 39.1589 11.7153 39.1589ZM41.1882 45.2139L41.3778 45.0214L42.8653 43.5339H39.2486C39.5695 44.1756 39.832 44.8756 39.9778 45.6048C40.0361 45.7506 40.0653 45.9256 40.0653 46.0714C40.3278 45.9256 40.5611 45.7798 40.7945 45.5756C40.9365 45.4674 41.0683 45.3463 41.1882 45.2139Z" fill="#A31D20"/>
</g>
</svg>
