<svg width="70" height="70" viewBox="0 0 70 70" fill="none" xmlns="http://www.w3.org/2000/svg">
<g opacity="0.8">
<path d="M13.7104 65.3769C11.9521 65.3769 10.4481 64.7508 9.19859 63.4986C7.94904 62.2464 7.32295 60.7451 7.32031 58.9947V27.056C7.32031 26.0437 7.54702 25.0854 8.00045 24.1812C8.45387 23.277 9.07865 22.5323 9.87478 21.947L31.1686 5.90057C32.2837 5.04645 33.557 4.61938 34.9884 4.61938C36.4198 4.61938 37.701 5.04645 38.832 5.90057L60.1258 21.9431C60.9245 22.5283 61.5493 23.2744 62.0001 24.1812C62.4535 25.0854 62.6802 26.0437 62.6802 27.056V58.9947C62.6802 60.7504 62.0541 62.253 60.8019 63.5026C59.5497 64.7521 58.0471 65.3782 56.2941 65.3808L13.7104 65.3769ZM13.7104 61.4226H56.2941C57.0032 61.4226 57.5858 61.1946 58.0419 60.7385C58.4979 60.2825 58.7259 59.6999 58.7259 58.9907V27.052C58.7259 26.646 58.6376 26.277 58.461 25.9448C58.2844 25.6127 58.0432 25.3227 57.7374 25.0749L36.4475 9.10354C36.0416 8.75029 35.5591 8.57366 35.0003 8.57366C34.4414 8.57366 33.9603 8.75029 33.557 9.10354L12.2632 25.0749C11.96 25.3279 11.7188 25.6179 11.5395 25.9448C11.3603 26.2717 11.272 26.6408 11.2746 27.052V58.9907C11.2746 59.6999 11.5026 60.2825 11.9587 60.7385C12.4147 61.1946 12.9987 61.4226 13.7104 61.4226ZM29.9823 54.8822C30.4568 54.8822 30.8549 54.7227 31.1765 54.4038C31.4928 54.0848 31.651 53.6867 31.651 53.2096V41.5009C33.0482 41.5009 34.2345 41.0133 35.2098 40.0379C36.1852 39.0625 36.6729 37.8762 36.6729 36.479V28.1157C36.6729 27.6412 36.5134 27.2431 36.1945 26.9215C35.8755 26.6025 35.4774 26.4431 35.0003 26.4431C34.5231 26.4431 34.125 26.6025 33.8061 26.9215C33.4871 27.2405 33.3276 27.6386 33.3276 28.1157V36.479H31.6549V28.1157C31.6549 27.6412 31.4955 27.2431 31.1765 26.9215C30.8575 26.6025 30.4594 26.4431 29.9823 26.4431C29.5051 26.4431 29.1071 26.6025 28.7881 26.9215C28.4691 27.2405 28.3096 27.6386 28.3096 28.1157V36.479H26.637V28.1157C26.637 27.6412 26.4775 27.2431 26.1585 26.9215C25.8369 26.6025 25.4388 26.4431 24.9643 26.4431C24.4898 26.4431 24.0904 26.6025 23.7662 26.9215C23.4498 27.2405 23.2916 27.6386 23.2916 28.1157V36.479C23.2916 37.8762 23.7793 39.0625 24.7547 40.0379C25.7301 41.0133 26.9151 41.5009 28.3096 41.5009V53.2096C28.3096 53.6841 28.4678 54.0821 28.7841 54.4038C29.1058 54.7227 29.5051 54.8822 29.9823 54.8822ZM43.3636 54.8822C43.8407 54.8822 44.2388 54.7227 44.5578 54.4038C44.8767 54.0848 45.0362 53.6867 45.0362 53.2096V28.614C45.0362 28.0024 44.8253 27.4883 44.4035 27.0718C43.9818 26.6553 43.4611 26.4444 42.8416 26.4391C41.3205 26.4391 40.1909 27.1377 39.4528 28.5349C38.7147 29.9294 38.3456 31.4623 38.3456 33.1337V39.9667C38.3456 40.8762 38.6712 41.5959 39.3223 42.1257C39.9734 42.6556 40.7116 43.0049 41.5367 43.1736H41.6949V53.2096C41.6949 53.6841 41.853 54.0821 42.1694 54.4038C42.4883 54.7227 42.8864 54.8822 43.3636 54.8822Z" fill="#A31D20"/>
</g>
</svg>
