<svg xmlns="http://www.w3.org/2000/svg" width="20" height="20" fill="none"><path fill="#FFC107" d="M10 14.396 6.54 16.479a.757.757 0 0 1-.48.125.806.806 0 0 1-.437-.166 1 1 0 0 1-.291-.365.73.73 0 0 1-.042-.49l.917-3.937L3.145 9a.796.796 0 0 1-.26-.427.89.89 0 0 1 .28-.843.861.861 0 0 1 .46-.188l4.041-.354 1.562-3.709a.747.747 0 0 1 .324-.375.893.893 0 0 1 .447-.125c.152 0 .302.042.448.125a.747.747 0 0 1 .323.375l1.563 3.709 4.041.354c.195.028.348.09.459.187a.892.892 0 0 1 .25.375c.055.153.066.31.031.47a.79.79 0 0 1-.26.426l-3.063 2.646.917 3.937a.73.73 0 0 1-.042.49.992.992 0 0 1-.292.365.814.814 0 0 1-.437.166.75.75 0 0 1-.48-.125L10 14.396Z"/></svg>