<svg xmlns="http://www.w3.org/2000/svg" width="24" height="24" fill="none"><path fill="#EEECEC" d="M24 6.288a1.2 1.2 0 0 0-.348-.852L18.564.348A1.2 1.2 0 0 0 17.712 0a1.2 1.2 0 0 0-.852.348l-3.396 3.396L.348 16.859A1.2 1.2 0 0 0 0 17.71v5.087a1.2 1.2 0 0 0 1.2 1.2h5.088a1.2 1.2 0 0 0 .912-.348l13.044-13.115L23.652 7.2c.11-.116.199-.25.264-.395a1.206 1.206 0 0 0 0-.288.842.842 0 0 0 0-.168l.084-.06ZM5.796 21.598H2.4v-3.395L14.316 6.288l3.396 3.395L5.796 21.598ZM19.404 7.991l-3.396-3.395 1.704-1.692 3.384 3.384-1.692 1.703Z"/></svg>