<svg width="40" height="39" viewBox="0 0 40 39" fill="none" xmlns="http://www.w3.org/2000/svg">
<path d="M36.8237 18.0253H27.7769V15.0698H24.748V21.0002H36.8237V23.9556H24.748V26.9305H36.8237V29.8859H39.8327V15.0698H36.8237V18.0253Z" fill="#000001"/>
<path d="M24.7473 29.8862V35.8166H12.6914V38.772H33.7942V35.8166H27.7761V32.8417H33.7942V35.8166H36.823V29.8862H24.7473Z" fill="#000001"/>
<path d="M36.8281 12.1145H27.7812V15.0699H36.8281V12.1145Z" fill="#000001"/>
<path d="M30.7903 3.20898H27.7812V9.13932H30.7903V3.20898Z" fill="#000001"/>
<path d="M27.7769 9.13916H24.748V12.1141H27.7769V9.13916Z" fill="#000001"/>
<path d="M27.7781 0.253418H21.7402V3.20887H27.7781V0.253418Z" fill="#000001"/>
<path d="M24.7493 26.9309H21.7402V29.8864H24.7493V26.9309Z" fill="#000001"/>
<path d="M24.7493 21H21.7402V23.9554H24.7493V21Z" fill="#000001"/>
<path d="M24.7493 12.1145H21.7402V15.0699H24.7493V12.1145Z" fill="#000001"/>
<path d="M21.7398 3.20898H18.7109V6.18387H21.7398V3.20898Z" fill="#000001"/>
<path d="M18.7082 6.18262H15.6992V9.13807H18.7082V6.18262Z" fill="#000001"/>
<path d="M15.7004 9.13916H12.6914V12.1141H15.7004V9.13916Z" fill="#000001"/>
<path d="M9.66405 32.8411V15.0695H12.6929V12.1141H9.66405V9.13916H0.617188V38.7714H9.66405V35.816H12.6929V32.8411H9.66405ZM6.65503 32.8411H3.646V26.9302H6.65503V32.8411Z" fill="#000001"/>
</svg>
