<svg width="49" height="47" viewBox="0 0 49 47" fill="none" xmlns="http://www.w3.org/2000/svg">
<path d="M46.559 16.9992L43 16.0435L42.4597 17.8087L46.0186 18.7645L46.559 16.9992Z" fill="#A31D20"/>
<path d="M43.1916 21.7602L41.4238 21.2861L40.8853 23.0429L42.653 23.517L43.1916 21.7602Z" fill="#A31D20"/>
<path d="M46.3497 11.2636L44.582 10.7896L44.04 12.5578L45.8077 13.0318L46.3497 11.2636Z" fill="#A31D20"/>
<path d="M41.9376 19.5182L40.1582 19.041L39.6161 20.8094L41.3955 21.2865L41.9376 19.5182Z" fill="#A31D20"/>
<path d="M44.0412 12.5316L42.2617 12.0544L41.7232 13.8113L43.5026 14.2885L44.0412 12.5316Z" fill="#A31D20"/>
<path d="M39.4135 15.0528L37.6543 14.5803L36.5824 18.0824L38.3416 18.5549L39.4135 15.0528Z" fill="#121212"/>
<path d="M41.5229 8.05428L39.7637 7.58179L38.6883 11.0954L40.4475 11.5679L41.5229 8.05428Z" fill="#A31D20"/>
<path d="M36.5836 18.0396L31.2324 16.5996L30.6878 18.3823L36.039 19.8223L36.5836 18.0396Z" fill="#121212"/>
<path d="M36.8927 10.5775L35.125 10.1035L34.5865 11.8603L36.3542 12.3343L36.8927 10.5775Z" fill="#A31D20"/>
<path d="M35.6388 8.33505L33.8594 7.85791L33.3173 9.62627L35.0967 10.1034L35.6388 8.33505Z" fill="#A31D20"/>
<path d="M31.7384 14.8432L29.9707 14.3691L29.4322 16.1259L31.1999 16.6L31.7384 14.8432Z" fill="#121212"/>
<path d="M30.4806 12.612L28.7129 12.1379L28.1744 13.8947L29.9421 14.3688L30.4806 12.612Z" fill="#121212"/>
<path d="M29.2321 10.3555L23.8926 8.9187L23.348 10.7013L28.6874 12.1381L29.2321 10.3555Z" fill="#121212"/>
<path d="M20.5989 13.6001L17.0545 12.6496L15.9747 16.1722L12.4419 15.2248L11.9038 16.9804L10.1258 16.5036L9.58415 18.2707L7.81776 17.797L6.73799 21.3197L4.9716 20.846L2.81562 27.8798L4.58201 28.3535L3.50225 31.8762L5.26864 32.3499L4.73053 34.1054L6.50854 34.5822L5.96689 36.3494L9.49968 37.2967L8.96157 39.0523L17.8168 41.427L18.3549 39.6714L21.8993 40.6219L22.4409 38.8548L24.2073 39.3285L24.7454 37.573L26.5234 38.0498L27.6032 34.5271L29.3696 35.0008L31.5256 27.967L29.7592 27.4933L30.8389 23.9706L29.0609 23.4938L29.6026 21.7267L27.8362 21.253L28.3743 19.4974L24.8299 18.5469L25.9097 15.0242L22.3769 14.0769L23.4531 10.5657L21.6751 10.0889L20.5989 13.6001ZM23.7501 22.0696L25.5282 22.5464L24.99 24.302L26.7564 24.7757L26.2148 26.5428L27.9812 27.0165L25.8252 34.0503L24.0588 33.5766L26.2148 26.5428L24.4484 26.0691L24.99 24.302L23.212 23.8252L23.7501 22.0696ZM19.9763 34.3816L21.7543 34.8585L21.2126 36.6256L19.4346 36.1488L19.9763 34.3816Z" fill="#121212"/>
</svg>
