<svg xmlns="http://www.w3.org/2000/svg" width="20" height="20" fill="none"><g fill="#A31D20" clip-path="url(#a)"><path d="M10.142 9.552 7.885 1.736h4.513l-2.256 7.816ZM10.142 10.435l2.256 7.816H7.885l2.257-7.816ZM10.589 10.222l8.074.996-1.773 4.15-6.301-5.146ZM9.738 10.222l-8.074.996 1.773 4.15 6.301-5.146ZM10.36 9.738l5.451-6.039 2.38 3.835-7.831 2.204ZM9.65 9.738 4.196 3.699 1.818 7.534l7.831 2.204Z"/><path d="M10 2.5a7.5 7.5 0 1 0 0 15 7.5 7.5 0 0 0 0-15ZM.833 10a9.167 9.167 0 1 1 18.334 0A9.167 9.167 0 0 1 .833 10Zm7.5 0a1.667 1.667 0 1 1 3.333 0 1.667 1.667 0 0 1-3.333 0Z"/></g><defs><clipPath id="a"><path fill="#fff" d="M0 0h20v20H0z"/></clipPath></defs></svg>