<svg xmlns="http://www.w3.org/2000/svg" width="20" height="20" fill="none"><path stroke="#A31D20" stroke-linecap="round" stroke-linejoin="round" stroke-width="1.5" d="M5.906 18.874c-.381 0-.747-.156-1.016-.433a1.5 1.5 0 0 1-.421-1.046l.625-8.035H6.78l.625 8.035a1.515 1.515 0 0 1-.443 1.069 1.401 1.401 0 0 1-1.057.41ZM5.906 9.36c1.83 0 3.313-1.9 3.313-4.242 0-2.344-1.483-4.243-3.313-4.243s-3.312 1.9-3.312 4.243c0 2.343 1.483 4.242 3.312 4.242ZM14.594 19.124c-.381 0-.747-.158-1.017-.44a1.534 1.534 0 0 1-.42-1.06l.624-8.152h1.688l.625 8.152c0 .202-.04.403-.115.59a1.504 1.504 0 0 1-.328.494c-.14.14-.306.25-.488.32a1.384 1.384 0 0 1-.57.096Z"/><path stroke="#A31D20" stroke-linecap="round" stroke-linejoin="round" stroke-width="1.5" d="M17.406 6.538a3.063 3.063 0 0 1-.864 2.079 2.814 2.814 0 0 1-2.01.855c-.747 0-1.462-.309-1.99-.86a3 3 0 0 1-.823-2.074h5.687ZM11.719 1.125v5.413M14.531 1.125v5.282M17.406 1.125v5.413"/></svg>