<svg width="21" height="21" viewBox="0 0 21 21" fill="none" xmlns="http://www.w3.org/2000/svg">
<g clip-path="url(#clip0_1195_2661)">
<path d="M10.7012 10.0522L8.44483 2.23594L12.9576 2.23594L10.7012 10.0522Z" fill="#A31D20"/>
<path d="M10.7011 10.9348L12.9575 18.7511L8.44476 18.7511L10.7011 10.9348Z" fill="#A31D20"/>
<path d="M11.1466 10.722L19.2209 11.7177L17.4481 15.8676L11.1466 10.722Z" fill="#A31D20"/>
<path d="M10.2968 10.722L2.22245 11.7177L3.99531 15.8676L10.2968 10.722Z" fill="#A31D20"/>
<path d="M10.9172 10.2378L16.369 4.19926L18.7484 8.03372L10.9172 10.2378Z" fill="#A31D20"/>
<path d="M10.2078 10.2378L4.75603 4.19926L2.37657 8.03372L10.2078 10.2378Z" fill="#A31D20"/>
<path d="M10.5592 2.99992C9.57433 2.99992 8.59906 3.19391 7.68912 3.57082C6.77918 3.94773 5.95238 4.50018 5.25594 5.19662C4.5595 5.89306 4.00706 6.71985 3.63015 7.62979C3.25324 8.53974 3.05924 9.51501 3.05924 10.4999C3.05924 11.4848 3.25324 12.4601 3.63015 13.37C4.00706 14.28 4.5595 15.1068 5.25594 15.8032C5.95238 16.4997 6.77918 17.0521 7.68912 17.429C8.59906 17.8059 9.57433 17.9999 10.5592 17.9999C12.5484 17.9999 14.456 17.2097 15.8625 15.8032C17.2691 14.3967 18.0592 12.489 18.0592 10.4999C18.0592 8.5108 17.2691 6.60314 15.8625 5.19662C14.456 3.79009 12.5484 2.99992 10.5592 2.99992ZM1.39258 10.4999C1.39258 5.43742 5.49675 1.33325 10.5592 1.33325C15.6217 1.33325 19.7259 5.43742 19.7259 10.4999C19.7259 15.5624 15.6217 19.6666 10.5592 19.6666C5.49675 19.6666 1.39258 15.5624 1.39258 10.4999ZM8.89258 10.4999C8.89258 10.0579 9.06817 9.63397 9.38073 9.32141C9.6933 9.00885 10.1172 8.83325 10.5592 8.83325C11.0013 8.83325 11.4252 9.00885 11.7378 9.32141C12.0503 9.63397 12.2259 10.0579 12.2259 10.4999C12.2259 10.9419 12.0503 11.3659 11.7378 11.6784C11.4252 11.991 11.0013 12.1666 10.5592 12.1666C10.1172 12.1666 9.6933 11.991 9.38073 11.6784C9.06817 11.3659 8.89258 10.9419 8.89258 10.4999Z" fill="#A31D20"/>
</g>
<defs>
<clipPath id="clip0_1195_2661">
<rect width="20" height="20" fill="white" transform="translate(0.558594 0.5)"/>
</clipPath>
</defs>
</svg>
