<svg width="20" height="20" viewBox="0 0 20 20" fill="none" xmlns="http://www.w3.org/2000/svg">
<path d="M9.1 7.0752H19M1 8.8752L3.5263 6.0339C3.86405 5.65381 4.27848 5.34959 4.74231 5.14125C5.20614 4.93292 5.70883 4.8252 6.2173 4.8252H6.4M1 16.5252H5.95L9.55 13.8252C9.55 13.8252 10.279 13.3329 11.35 12.4752C13.6 10.6752 11.35 7.8258 9.1 9.3252C7.2676 10.5465 5.5 11.5752 5.5 11.5752" stroke="#A31D20" stroke-width="1.35" stroke-linecap="round" stroke-linejoin="round"/>
<path d="M6.40039 11.1251V5.2751C6.40039 4.79771 6.59003 4.33987 6.9276 4.00231C7.26516 3.66474 7.723 3.4751 8.20039 3.4751H17.2004C17.6778 3.4751 18.1356 3.66474 18.4732 4.00231C18.8107 4.33987 19.0004 4.79771 19.0004 5.2751V10.6751C19.0004 11.1525 18.8107 11.6103 18.4732 11.9479C18.1356 12.2855 17.6778 12.4751 17.2004 12.4751H11.3504" stroke="#A31D20" stroke-width="1.35"/>
</svg>
