<svg xmlns="http://www.w3.org/2000/svg" width="50" height="46" fill="none"><path fill="#fff" d="M15.115 7.634c.537 8.688 1.504 15.88 1.932 18.791.12.827.781 1.455 1.614 1.512 1.263.087 3.375.188 6.34.188 2.963 0 5.076-.101 6.338-.188a1.754 1.754 0 0 0 1.616-1.512c.427-2.911 1.393-10.103 1.93-18.79"/><path stroke="#000" stroke-linecap="round" stroke-linejoin="round" stroke-width="2" d="M15.115 7.634c.537 8.688 1.504 15.88 1.932 18.791.12.827.781 1.455 1.614 1.512 1.263.087 3.375.188 6.34.188 2.963 0 5.076-.101 6.338-.188a1.754 1.754 0 0 0 1.616-1.512c.427-2.911 1.393-10.103 1.93-18.79"/><path fill="#CE7132" d="M16 12h18l-1.258 11-15.542.23L16 12Z"/><path stroke="#000" stroke-linecap="round" stroke-linejoin="round" stroke-width="2" d="M15.432 12.041c1.653-.075 4.658-.166 9.568-.166 4.91 0 7.915.09 9.57.166M16.57 22.95c1.48.077 4.187.175 8.43.175 4.243 0 6.95-.098 8.43-.175"/><path fill="#4E3624" stroke="#000" stroke-linecap="round" stroke-linejoin="round" stroke-width="2" d="M18.157 2.096c-.428.044-.799.28-.993.664a7.82 7.82 0 0 0-.359.831c-.53.024-1.061.055-1.591.093-.495.035-.944.285-1.17.727a8.68 8.68 0 0 0-.682 1.845c-.17.675.329 1.298 1.024 1.339 1.563.093 4.766.218 10.614.218 5.848 0 9.051-.125 10.614-.218.696-.04 1.195-.664 1.025-1.34a8.675 8.675 0 0 0-.682-1.844c-.227-.442-.675-.692-1.17-.727-.375-.028-.898-.06-1.592-.093a7.8 7.8 0 0 0-.359-.831 1.231 1.231 0 0 0-.993-.664c-.885-.093-2.837-.221-6.843-.221s-5.958.128-6.843.22h0Z"/><path fill="#000" d="M8.967 40.278v4.1h-1v-8.534h1v3.423h1.123v1.01H8.967Zm-2.566-4.134v2.4c0 1.097-.193 2.045-.578 2.845-.385.8-.919 1.411-1.6 1.833-.682.422-1.463.634-2.345.634v-.99c.845 0 1.556-.229 2.134-.688.578-.467.974-1.134 1.189-2H1.878v-.956h3.49c.014-.133.022-.337.022-.61V37.1H1.878v-.956h4.523Zm11.82 8.234h-.933v-8.534h.934v8.534Zm-1.866-8.49v8.345h-.922v-3.966h-.945v-.99h.945V35.89h.922ZM13.9 42.834a3.41 3.41 0 0 0 .978-.289v.945c-.51.26-1.359.389-2.544.389h-1.99v-.934h.7v-5.866H10.4v-.934h4.166v.934H13.9v5.755Zm-1.955.111c.481 0 .833-.007 1.055-.022v-5.844h-1.055v5.866Zm10.799-7.555-3.311 9.444h-.878l3.311-9.444h.878Zm6.56 8.989v-8.534h1.011v8.534h-1.011ZM24.18 37.1v5.811h2.31c.378 0 .76-.037 1.145-.111.385-.074.704-.174.956-.3v.967c-.245.126-.563.226-.956.3a6.346 6.346 0 0 1-1.178.11H23.17v-7.733h4.777v.956h-3.766Zm14.987 7.278h-1V40h-1.966v-.989h1.966v-3.167h1v8.534ZM34.88 37.11c-.022.963-.1 1.833-.233 2.611l2.622 3.478-.8.6-2.144-2.889c-.282.889-.656 1.589-1.122 2.1-.46.504-.993.793-1.6.867v-1.056c.459-.089.855-.385 1.189-.889.333-.503.592-1.17.777-2 .186-.83.285-1.77.3-2.822h-2.077v-.967h5.133v.967h-2.045Zm5.966 4.511v-5.478h7.044v.934h-6.055v1.344h5.955v.9h-5.955v1.367h6.178v.933h-7.167Zm7.567 2.356H40.3v-.967h8.11v.967Z"/></svg>