<svg xmlns="http://www.w3.org/2000/svg" width="50" height="46" fill="none"><g clip-path="url(#a)"><path stroke="#FFE494" stroke-width="2" d="M23.5 3.5c.333.667.7 3.8-.5 5-1.2 1.2-.5 3.167 0 4.5M26.589 3.005c.813.59 1.476 2.329.41 4.995-1 2.5-1.41 3.717-.41 5.217"/><path fill="#F74848" d="m35.51 13.81-1.18 13.833a1.719 1.719 0 0 1-1.718 1.566H17.389a1.719 1.719 0 0 1-1.719-1.566l-1.18-13.835"/><path stroke="#000" stroke-linecap="round" stroke-linejoin="round" stroke-width="2" d="m35.51 13.81-1.18 13.833a1.719 1.719 0 0 1-1.718 1.566H17.389a1.719 1.719 0 0 1-1.719-1.566l-1.18-13.835"/><path stroke="#000" stroke-linecap="round" stroke-linejoin="round" stroke-width="2" d="M31.454 19.948H18.547A1.69 1.69 0 0 1 17.029 19l-2.539-5.192h21.02L32.972 19a1.69 1.69 0 0 1-1.518.948ZM14.49 13.808 10.914 19.1M35.51 13.808l3.576 5.293M21.203 7.011l-4.093.245M37.136 6 30 6.426M37.44.791 18.009 3.986M27.555 2.416c4.098 4.96-.852 6.342.34 10.148M24.585 2.905c2.928 4.415-1.703 5.818-.21 9.659M21.72 3.97c1.092 3.598-2.517 5.19-.852 9.03"/><path fill="#FFE484" d="M28.659 20.147c.061.28.092.566.09.853a3.933 3.933 0 1 1-7.72-1.049"/><path stroke="#000" stroke-linecap="round" stroke-linejoin="round" stroke-width="2" d="M28.659 20.147c.061.28.092.566.09.853a3.933 3.933 0 1 1-7.72-1.049"/></g><path fill="#000" d="M19.524 40.278v4.1h-1v-8.534h1v3.423h1.122v1.01h-1.122Zm-4.7-4.245c.748 0 1.337.334 1.767 1 .437.667.655 1.66.655 2.978 0 1.319-.218 2.311-.655 2.978-.43.667-1.019 1-1.767 1-.74 0-1.33-.333-1.767-1-.437-.667-.655-1.66-.655-2.978 0-1.318.218-2.311.655-2.978.437-.666 1.026-1 1.767-1Zm0 6.99c.43 0 .774-.245 1.033-.734.26-.496.39-1.256.39-2.278s-.13-1.778-.39-2.267c-.259-.496-.603-.744-1.033-.744-.437 0-.785.248-1.044.744-.26.49-.39 1.245-.39 2.267 0 1.022.13 1.782.39 2.278.259.489.607.733 1.044.733Zm13.732 1.355h-1.011v-8.534h1.011v8.534Zm-3.944-8.3c-.015 1.318-.126 2.489-.334 3.51l2.612 3.656-.812.612-2.133-3.045c-.304.94-.7 1.674-1.189 2.2-.481.526-1.037.815-1.666.867V42.81c.518-.089.962-.437 1.333-1.044.378-.615.663-1.419.855-2.411.2-1 .304-2.104.312-3.312l1.022.034Zm13.632 2.778h-1.122v3.322h-1v-6.334h1v2h1.122v1.012Zm-3.434-.445c0 .482-.103.911-.31 1.289a2.231 2.231 0 0 1-.89.889c-.385.207-.833.311-1.344.311-.511 0-.96-.104-1.344-.311a2.232 2.232 0 0 1-.89-.889 2.634 2.634 0 0 1-.31-1.289c0-.481.103-.911.31-1.289.208-.378.505-.67.89-.878.385-.214.833-.322 1.344-.322.511 0 .96.108 1.345.322.385.208.681.5.888.878.208.378.311.808.311 1.29Zm-4.077 0c0 .489.137.878.41 1.167.282.289.656.433 1.123.433.467 0 .84-.144 1.122-.433.282-.29.422-.678.422-1.167s-.14-.878-.422-1.167c-.281-.288-.655-.433-1.122-.433-.467 0-.84.145-1.122.433-.274.29-.411.678-.411 1.167Zm6.6 4.911v.956h-6.945v-2.811H31.4v1.855h5.934Z"/><defs><clipPath id="a"><path fill="#fff" d="M10 0h30v30H10z"/></clipPath></defs></svg>