<svg xmlns="http://www.w3.org/2000/svg" width="50" height="46" fill="none"><path fill="#FFC107" d="M17.635 12.241h13.326v12.446H17.635z"/><path stroke="#000" stroke-linecap="round" stroke-linejoin="round" stroke-width="2" d="M30.96 22.039h3.405a2.098 2.098 0 0 0 2.01-2.166v-3.248a2.172 2.172 0 0 0-2.166-2.166h-3.248"/><path fill="#FFC107" stroke="#000" stroke-linecap="round" stroke-linejoin="round" stroke-width="2" d="M32.584 25.829a1.624 1.624 0 0 1-1.624 1.624H17.966a1.624 1.624 0 1 1 0-3.249H30.96a1.63 1.63 0 0 1 1.624 1.625Z"/><path stroke="#000" stroke-linecap="round" stroke-linejoin="round" stroke-width="2" d="M17.967 18.79v5.414M30.96 24.204l.002-11.91M27.71 15v7.039M24.463 18.249v3.79M21.215 19.332v2.707"/><path fill="#fff" stroke="#000" stroke-linecap="round" stroke-linejoin="round" stroke-width="2" d="M30.961 5.797a6.04 6.04 0 0 0-10.757.087 4.331 4.331 0 1 0-2.237 8.034 3.248 3.248 0 0 0 6.497 0v-.542a1.083 1.083 0 0 1 1.083-1.082h5.414a3.248 3.248 0 1 0 0-6.497Z"/><path fill="#000" d="M20.546 37.367c-.445.437-1 .789-1.667 1.055a5.949 5.949 0 0 1-2.045.411v-.866a4.932 4.932 0 0 0 1.578-.334c.519-.2.963-.474 1.334-.822.37-.348.603-.74.7-1.178l1 .19c-.06.273-.175.562-.345.866l3.322 1.378-.333.789-3.544-1.49ZM21.1 40.9h3.011v2H18.09v.656h6.156v.722H17.1v-2.011h6.022v-.645H17.08V40.9H20.1v-.733h-3.555v-.8h8.11v.8h-3.555v.733Zm11.855-.622h-1.012v-4.434h1.012v4.434Zm-4.723-1.656a3.297 3.297 0 0 1-1.122 1.067c-.46.274-.981.444-1.567.511v-.933c.645-.097 1.167-.352 1.567-.767.4-.415.633-.937.7-1.567h-2.167v-.889H30.9v.89h-2.056c-.014.259-.07.555-.166.888l2.5 1.511-.478.79-2.467-1.5Zm4.723 2.022v3.634h-6.923v-3.634h.978v.912h4.956v-.912h.989Zm-.99 1.756h-4.955v1.022h4.956V42.4Z"/></svg>