<svg xmlns="http://www.w3.org/2000/svg" width="50" height="46" fill="none"><g clip-path="url(#a)"><path fill="#D6A785" d="M30.01 8.413h8.115v5.962H30.01z"/><path fill="#D6A785" d="M38.125 8.125H25c-5.272 0-8.73.054-10.644.097-1.172.026-2.243.655-2.403 1.816-.053.401-.08.806-.078 1.212 0 .461.031.864.078 1.213.16 1.16 1.231 1.789 2.403 1.815.748.017 1.732.035 2.968.051"/><path stroke="#000" stroke-linecap="round" stroke-linejoin="round" stroke-width="2" d="M38.125 8.125H25c-5.272 0-8.73.054-10.644.097-1.172.026-2.243.655-2.403 1.816-.053.401-.08.806-.078 1.212 0 .461.031.864.078 1.213.16 1.16 1.231 1.789 2.403 1.815.748.017 1.732.035 2.968.051"/><path fill="#D6A785" d="M38.125 8.125H25c-5.272 0-8.73-.054-10.644-.097-1.172-.026-2.243-.655-2.403-1.816A8.907 8.907 0 0 1 11.875 5c0-.461.031-.864.078-1.212.16-1.161 1.231-1.79 2.403-1.816 1.915-.043 5.372-.097 10.644-.097h13.125"/><path stroke="#000" stroke-linecap="round" stroke-linejoin="round" stroke-width="2" d="M38.125 8.125H25c-5.272 0-8.73-.054-10.644-.097-1.172-.026-2.243-.655-2.403-1.816A8.907 8.907 0 0 1 11.875 5c0-.461.031-.864.078-1.212.16-1.161 1.231-1.79 2.403-1.816 1.915-.043 5.372-.097 10.644-.097h13.125M38.124 14.375H30.47"/><path fill="#664328" d="M21.619 8.125c-.757 3.321-.394 6.16 1.506 9.375 1.475 2.497 2.024 5.52 1.84 8.3-.078 1.202.828 2.325 2.032 2.325 1.167 0 2.213-.806 2.316-1.969.256-2.877-.275-6.052-1.813-8.656-1.9-3.216-2.264-6.054-1.506-9.375"/><path stroke="#000" stroke-linecap="round" stroke-linejoin="round" stroke-width="2" d="M21.619 8.125c-.757 3.321-.394 6.16 1.506 9.375 1.475 2.497 2.024 5.52 1.84 8.3-.078 1.202.828 2.325 2.032 2.325 1.167 0 2.213-.806 2.316-1.969.256-2.877-.275-6.052-1.813-8.656-1.9-3.216-2.264-6.054-1.506-9.375"/><path fill="#664328" d="M16.525 8.125c-.757 3.321-.394 6.16 1.506 9.375 1.475 2.497 2.024 5.52 1.841 8.3-.08 1.202.828 2.325 2.031 2.325 1.167 0 2.213-.806 2.316-1.969.256-2.877-.274-6.052-1.813-8.656-1.9-3.216-2.263-6.054-1.506-9.375"/><path stroke="#000" stroke-linecap="round" stroke-linejoin="round" stroke-width="2" d="M16.525 8.125c-.757 3.321-.394 6.16 1.506 9.375 1.475 2.497 2.024 5.52 1.841 8.3-.08 1.202.828 2.325 2.031 2.325 1.167 0 2.213-.806 2.316-1.969.256-2.877-.274-6.052-1.813-8.656-1.9-3.216-2.263-6.054-1.506-9.375"/><path fill="#664328" d="M26.232 8.125c-.757 3.321-.394 6.16 1.506 9.375 1.475 2.497 2.024 5.52 1.841 8.3-.08 1.202.828 2.325 2.031 2.325 1.167 0 2.213-.806 2.316-1.969.256-2.877-.274-6.052-1.813-8.656-1.9-3.216-2.263-6.054-1.506-9.375"/><path stroke="#000" stroke-linecap="round" stroke-linejoin="round" stroke-width="2" d="M26.232 8.125c-.757 3.321-.394 6.16 1.506 9.375 1.475 2.497 2.024 5.52 1.841 8.3-.08 1.202.828 2.325 2.031 2.325 1.167 0 2.213-.806 2.316-1.969.256-2.877-.274-6.052-1.813-8.656-1.9-3.216-2.263-6.054-1.506-9.375"/><ellipse cx="20.18" cy="13.139" fill="#6F9A3F" rx="1.582" ry="1.534"/><ellipse cx="25.863" cy="23.005" fill="#6F9A3F" rx="1.582" ry="1.534"/><ellipse cx="28.887" cy="16.076" fill="#6F9A3F" rx="1.582" ry="1.534"/></g><path fill="#000" d="M20.423 38.033c-.392.334-.9.593-1.522.778a7.525 7.525 0 0 1-1.933.289v-.856a5.501 5.501 0 0 0 2.022-.41c.63-.267 1.019-.62 1.167-1.056H17.09v-.845h7.022v.845h-2.855a1.352 1.352 0 0 1-.19.566l3.267.967-.255.822-3.656-1.1Zm.678 3.267c.926.03 1.67.167 2.233.411.564.245.845.619.845 1.122 0 .556-.326.956-.978 1.2-.652.245-1.518.367-2.6.367-1.074 0-1.94-.122-2.6-.367-.652-.244-.978-.644-.978-1.2 0-.503.282-.877.845-1.122.563-.244 1.307-.381 2.233-.411v-.778h-3.555v-.844h8.11v.844h-3.555v.778Zm2.011 1.533c0-.259-.237-.444-.71-.555-.468-.111-1.068-.167-1.8-.167-.734 0-1.338.056-1.812.167-.474.11-.711.296-.711.555 0 .26.237.449.711.567.474.119 1.078.178 1.811.178.733 0 1.334-.06 1.8-.178.474-.118.711-.307.711-.567Zm9.844-1.9h-1.012v-5.089h1.012v5.09ZM28.189 38.8c-.311.519-.7.948-1.167 1.289a3.387 3.387 0 0 1-1.555.611v-.978c.496-.089.93-.315 1.3-.678.377-.362.666-.814.866-1.355.208-.548.315-1.14.323-1.778l1.01.067a5.54 5.54 0 0 1-.355 1.989l2.556 1.844-.567.767-2.411-1.778Zm4.767 2.589v3h-1.023V42.3h-5.966v-.911h6.989Z"/><defs><clipPath id="a"><path fill="#fff" d="M10 0h30v30H10z"/></clipPath></defs></svg>