<svg xmlns="http://www.w3.org/2000/svg" width="50" height="46" fill="none"><g clip-path="url(#a)"><path fill="#FFB151" d="M13.338 25.435v1.227a2.455 2.455 0 0 0 2.455 2.455h18.414a2.456 2.456 0 0 0 2.455-2.455v-1.227"/><path stroke="#000" stroke-linecap="round" stroke-linejoin="round" stroke-width="2" d="M13.338 25.435v1.227a2.455 2.455 0 0 0 2.455 2.455h18.414a2.456 2.456 0 0 0 2.455-2.455v-1.227"/><path stroke="#F74848" stroke-width="4" d="M12 18h25"/><path fill="#664328" d="M27.959 25.434H13.338a2.455 2.455 0 0 1 0-4.91h23.324a2.454 2.454 0 1 1 0 4.91h-4.517"/><path stroke="#000" stroke-linecap="round" stroke-linejoin="round" stroke-width="2" d="M27.959 25.434H13.338a2.455 2.455 0 0 1 0-4.91h23.324a2.454 2.454 0 1 1 0 4.91h-4.517"/><path fill="#FFC107" d="m20.703 20.524 8.593 5.843c.363.237.798.337 1.228.283.412-.044.79-.247 1.055-.565l4.469-5.56"/><path stroke="#000" stroke-linecap="round" stroke-linejoin="round" stroke-width="2" d="m20.703 20.524 8.593 5.843c.363.237.798.337 1.228.283.412-.044.79-.247 1.055-.565l4.469-5.56"/><path fill="#F74848" d="M13.338 20.524a2.467 2.467 0 1 1-.491-4.91"/><path stroke="#000" stroke-linecap="round" stroke-linejoin="round" stroke-width="2" d="M13.338 20.524a2.467 2.467 0 1 1-.491-4.91"/><path fill="#F74848" d="M37.153 15.663a2.468 2.468 0 0 1-.49 4.91"/><path stroke="#000" stroke-linecap="round" stroke-linejoin="round" stroke-width="2" d="M37.153 15.663a2.468 2.468 0 0 1-.49 4.91"/><path fill="#4DD43B" d="M13.338 11.931a1.988 1.988 0 0 0-1.842 1.842c0 1.424 1.571 2.86 3.683 1.227a3.389 3.389 0 0 0 3.069 1.841 2.959 2.959 0 0 0 3.069-1.84A3.855 3.855 0 0 0 25 16.84a3.855 3.855 0 0 0 3.682-1.84 2.958 2.958 0 0 0 3.07 1.84 3.39 3.39 0 0 0 3.068-1.84c2.112 1.644 3.683.208 3.683-1.228a1.989 1.989 0 0 0-1.841-1.842"/><path stroke="#000" stroke-linecap="round" stroke-linejoin="round" stroke-width="2" d="M13.338 11.931a1.988 1.988 0 0 0-1.842 1.842c0 1.424 1.571 2.86 3.683 1.227a3.389 3.389 0 0 0 3.069 1.841 2.959 2.959 0 0 0 3.069-1.84A3.855 3.855 0 0 0 25 16.84a3.855 3.855 0 0 0 3.682-1.84 2.958 2.958 0 0 0 3.07 1.84 3.39 3.39 0 0 0 3.068-1.84c2.112 1.644 3.683.208 3.683-1.228a1.989 1.989 0 0 0-1.841-1.842"/><path fill="#FFB151" stroke="#000" stroke-linecap="round" stroke-linejoin="round" stroke-width="2" d="M36.662 11.931C36.662 5.486 31.445.883 25 .883c-6.445 0-11.662 4.603-11.662 11.048h23.324Z"/><path stroke="#000" stroke-width="2" d="M18.862 7.094a.307.307 0 1 1 0-.614"/><path stroke="#000" stroke-width="2" d="M18.861 7.094a.307.307 0 1 0 0-.614M31.137 7.094a.307.307 0 1 1 0-.614M31.137 7.094a.307.307 0 1 0 0-.614M21.932 5.253a.307.307 0 1 1 0-.614M21.932 5.253a.307.307 0 1 0 0-.614M28.069 5.253a.307.307 0 1 1 0-.614"/><path stroke="#000" stroke-width="2" d="M28.068 5.253a.307.307 0 0 0 0-.614M25 7.094a.307.307 0 0 1 0-.614M25 7.094a.307.307 0 1 0 0-.614"/></g><path fill="#000" d="M11.18 44.378h-.933v-4.134H9.103v3.99H8.18v-8.345h.922v3.367h1.144v-3.412h.934v8.534Zm-4.288-1.545c.34-.044.655-.137.944-.277v.933c-.51.26-1.359.389-2.544.389h-1.99v-.934h.7v-5.866h-.644v-.934h4.178v.934h-.644v5.755Zm-1.767.111c.245 0 .53-.007.856-.022v-5.844H4.903v5.866h.222Zm10.977-4.222c-.474.763-1.045 1.37-1.711 1.822-.667.445-1.363.667-2.09.667v-1c.571 0 1.12-.192 1.645-.578.534-.392.985-.918 1.356-1.577a6.635 6.635 0 0 0 .766-2.19l1.034.19a8.047 8.047 0 0 1-.567 1.833l3.567 2.522-.545.833-3.455-2.522Zm4.155 4.267v.989h-8.11v-.99h8.11Zm1.232-1.367v-5.478h7.045v.934h-6.056v1.344h5.956v.9h-5.956v1.367h6.178v.933H21.49Zm7.567 2.356h-8.111v-.967h8.111v.967Zm1.121-3.59v-.955h1.411v-2.389h-1.322v-.955h7.078v.955H36.01v2.39h1.412v.955h-7.245Zm4.834-.955v-2.389h-2.412v2.39h2.412Zm-.7 2.8v2.345h-1.023v-2.345h-3.544v-.966h8.111v.966h-3.544Zm5.776-5.11v3.1h6.133v.977h-7.144v-5.056h7.056v.978h-6.045Zm-1.544 6.855v-.99h8.11v.99h-8.11Z"/><defs><clipPath id="a"><path fill="#fff" d="M10 0h30v30H10z"/></clipPath></defs></svg>