<svg xmlns="http://www.w3.org/2000/svg" width="50" height="49" fill="none"><circle cx="23.5" cy="9.36" r="4.528" fill="#fff"/><circle cx="19.197" cy="13.008" r="4.528" fill="#fff"/><circle cx="27.273" cy="13.008" r="4.528" fill="#fff"/><circle cx="24.649" cy="13.889" r="4.528" fill="#fff"/><circle cx="30.222" cy="17.536" r="4.528" fill="#fff"/><circle cx="16.082" cy="18.417" r="4.528" fill="#fff"/><path fill="#EEF8FF" stroke="#141B34" stroke-linejoin="round" stroke-width="2" d="M12.867 16.832h21.266c2.404 0 3.285.556 2.685 2.973-1.058 4.264-4.054 5.323-6.822 8.106-.673.676.374 1.676.374 2.42.001 1.4-1.33 1.501-2.392 1.501h-8.956c-1.061 0-2.393-.1-2.392-1.501 0-.729 1.016-1.775.374-2.42-2.768-2.783-5.764-3.842-6.822-8.106-.6-2.417.28-2.973 2.685-2.973Z"/><path stroke="#141B34" stroke-linecap="round" stroke-linejoin="round" stroke-width="2" d="M34.75 16.832c0-2.687-2.85-4.518-5.25-3.462m-17.25 3.462a3.767 3.767 0 0 1 3.323-3.752c-1.221-2.76 1.366-5.857 4.235-5.222m11.63 5.198c1.172-2.7-1.31-5.848-4.246-5.198-.715-4.035-6.67-4.035-7.384 0m0 0A3.75 3.75 0 0 1 22 9.28M32.5 12.332l7.5-9M31 7.832l3-6"/><path fill="#000" d="M16.523 40.489v-.856h2.234v-.944h1.022v.944h2.256v.856h-5.512Zm8.523 1.667h-1.123v3.077h-1v-6.389h1v2.3h1.123v1.012Zm-5.767 2.288c-.704 0-1.282-.155-1.733-.466a1.481 1.481 0 0 1-.678-1.29c0-.547.226-.973.678-1.277.451-.311 1.03-.467 1.733-.467.696 0 1.27.156 1.722.467.46.311.69.737.69 1.278 0 .548-.23.978-.69 1.289-.452.31-1.026.466-1.722.466Zm0-2.7c-.437 0-.789.09-1.056.267-.266.178-.4.404-.4.678 0 .281.134.511.4.689.267.178.619.266 1.056.266.437 0 .785-.088 1.044-.266.267-.178.4-.408.4-.69 0-.273-.133-.5-.4-.677-.259-.178-.607-.267-1.044-.267Zm4.855 4.6v.934H17.09V44.91h1.022v1.433h6.023Zm8.822-2.41h-1.012v-5.09h1.012v5.09ZM28.189 41.8c-.311.519-.7.948-1.167 1.289a3.387 3.387 0 0 1-1.555.611v-.978c.496-.089.93-.315 1.3-.678.377-.362.666-.814.866-1.355.208-.548.315-1.14.323-1.778l1.01.067a5.54 5.54 0 0 1-.355 1.989l2.556 1.844-.567.767-2.411-1.778Zm4.767 2.589v3h-1.023V45.3h-5.966v-.911h6.989Z"/></svg>