<svg xmlns="http://www.w3.org/2000/svg" width="50" height="46" fill="none"><g clip-path="url(#a)"><path fill="#DFF0FF" stroke="#000" stroke-linecap="round" stroke-linejoin="round" stroke-width="2" d="M12.06 14.592c.042-.482.195-.947.45-1.359.56-.919 1.69-2.677 2.944-4.142 0 0-.05-1.994-.084-3.973a3.025 3.025 0 0 1 2.905-3.088A169.45 169.45 0 0 1 25 1.875c2.391 0 4.874.079 6.725.155a3.025 3.025 0 0 1 2.904 3.087c-.024 1.325-.052 2.65-.083 3.974 1.255 1.465 2.383 3.223 2.945 4.143.253.414.407.874.448 1.358.12 1.437.325 5.027.047 11a2.445 2.445 0 0 1-2.353 2.33c-2.337.087-6.27.203-10.633.203-4.364 0-8.296-.116-10.633-.204a2.445 2.445 0 0 1-2.353-2.33c-.277-5.972-.074-9.562.047-10.999Z"/><path fill="#DFF0FF" stroke="#000" stroke-linecap="round" stroke-width="2" d="M27.5 14.584a8.03 8.03 0 0 0-.488 1.673C26.67 18.169 28.084 20 30.027 20c1.932 0 3.297-1.85 2.905-3.742a8.48 8.48 0 0 0-.6-1.836c-.407-.877-1.339-1.297-2.305-1.297-1.073 0-2.115.467-2.528 1.459h0Z"/><path fill="#DFF0FF" stroke="#000" stroke-linecap="round" stroke-linejoin="round" stroke-width="2" d="M19.382 6.816c.021-.65.527-1.077 1.177-1.109.825-.04 2.218-.082 4.442-.082 2.223 0 3.616.042 4.441.082.65.032 1.156.459 1.177 1.109.009.247.009.496 0 .743-.022.65-.527 1.077-1.177 1.109-.825.04-2.218.082-4.441.082-2.224 0-3.617-.042-4.442-.082-.65-.032-1.156-.459-1.178-1.109a11.111 11.111 0 0 1 0-.743h0Z"/><path fill="#DFF0FF" d="M30 20v4.375V20Z"/><path stroke="#000" stroke-linecap="round" stroke-linejoin="round" stroke-width="2" d="M30 20v4.375"/><path fill="#DFF0FF" d="m17.187 13.125-.192 3.747c-.067 1.317.902 2.457 2.22 2.492.523.014 1.047.014 1.57 0 1.319-.035 2.287-1.175 2.22-2.492l-.193-3.747"/><path stroke="#000" stroke-linecap="round" stroke-linejoin="round" stroke-width="2" d="m17.187 13.125-.192 3.747c-.067 1.317.902 2.457 2.22 2.492.523.014 1.047.014 1.57 0 1.319-.035 2.287-1.175 2.22-2.492l-.193-3.747"/><path fill="#DFF0FF" d="M20 13.125v11.25-11.25Z"/><path stroke="#000" stroke-linecap="round" stroke-linejoin="round" stroke-width="2" d="M20 13.125v11.25"/><ellipse cx="30" cy="16.5" fill="#fff" rx="2" ry="2.5"/></g><path fill="#000" d="M20.257 43.978h-8.11V43h3.544v-2.011H12.68v-4.845h7.055v.978h-6.044v2.89h6.133v.977h-3.122V43h3.555v.978Zm8.3.4h-1.012v-8.534h1.011v8.534Zm-3.945-8.3c-.015 1.318-.126 2.489-.334 3.51l2.612 3.656-.812.612-2.133-3.045c-.304.94-.7 1.674-1.189 2.2-.481.526-1.037.815-1.666.867V42.81c.518-.089.962-.437 1.333-1.044.378-.615.663-1.419.855-2.411.2-1 .304-2.104.312-3.312l1.022.034Zm12.51 2.755v2.345h-1v-5.334h1v1.978h1.122v1.011h-1.122Zm-3.367-1.955h-3.756v-.834h4.745v2.79h-3.722v1.155h2.033c.54 0 1.026-.033 1.456-.1.437-.067.781-.16 1.033-.278v.845c-.245.118-.593.21-1.045.277-.451.067-.951.1-1.5.1h-2.977v-2.8h3.733v-1.155Zm3.367 4.755v2.756h-1.023v-1.867h-5.877v-.889h6.9Z"/><defs><clipPath id="a"><path fill="#fff" d="M10 0h30v30H10z"/></clipPath></defs></svg>