<svg xmlns="http://www.w3.org/2000/svg" width="50" height="46" fill="none"><path fill="#F4FAFF" stroke="#000" stroke-linecap="round" stroke-linejoin="round" stroke-width="2" d="M31.08 2.304c2.675 1.736 6.413 6.52 6.79 13.91.038.765-.388 1.49-1.184 1.812-.567.23-1.335.492-2.302.715a.726.726 0 0 0-.418.256.567.567 0 0 0-.118.435l.854 5.22c.237 1.45-.413 2.749-2.03 3.138-1.512.364-3.131-.514-3.131-1.884V3.136c0-.781.82-1.297 1.539-.832ZM23.93 3.655c.321 1.654.77 4.544.734 7.63-.02 1.592-1.237 3.019-3.15 3.394-.396.077-.818.147-1.258.201l1.284 9.725c.195 1.48-.854 2.931-2.543 3.13-.199.026-.4.04-.601.043a5.301 5.301 0 0 1-.6-.042c-1.69-.2-2.74-1.651-2.544-3.131l1.285-9.725c-.422-.052-.842-.119-1.257-.2-1.915-.376-3.132-1.804-3.151-3.396-.036-3.085.411-5.975.731-7.629.164-.843 1.008-1.435 1.986-1.435h7.099c.979 0 1.823.592 1.986 1.435Z"/><path stroke="#000" stroke-linecap="round" stroke-linejoin="round" stroke-width="2" d="m16.655 2.22-.348 6.694M20.137 2.22l.348 6.694"/><path fill="#000" d="M17.123 39.533V35.89h.99v.989H23.1v-.99h.99v3.645h-6.968Zm5.978-1.855h-4.989v1.033h4.99v-1.033Zm1.556 3.555H21.1v1.3h-1v-1.3h-3.555v-.889h8.11v.89Zm-.411 2.156v.889H17.1v-2.3h1.022v1.41h6.123Zm8.71-2.456h-1.012v-5.089h1.012v5.09ZM28.189 38.8c-.311.519-.7.948-1.167 1.289a3.387 3.387 0 0 1-1.555.611v-.978c.496-.089.93-.315 1.3-.678.377-.362.666-.814.866-1.355.208-.548.315-1.14.323-1.778l1.01.067a5.54 5.54 0 0 1-.355 1.989l2.556 1.844-.567.767-2.411-1.778Zm4.767 2.589v3h-1.023V42.3h-5.966v-.911h6.989Z"/></svg>