<svg xmlns="http://www.w3.org/2000/svg" width="50" height="46" fill="none"><path fill="#fff" d="M14.602 14.487c0 5.927 2.142 9.39 4.784 9.39H30.15c2.641 0 4.783-3.463 4.783-9.39"/><path stroke="#000" stroke-linecap="round" stroke-linejoin="round" stroke-width="2" d="M14.602 14.487c0 5.927 2.142 9.39 4.784 9.39H30.15c2.641 0 4.783-3.463 4.783-9.39"/><path fill="#E23555" stroke="#000" stroke-linecap="round" stroke-linejoin="round" stroke-width="2" d="M25 14.475a14.057 14.057 0 0 1 10.213 4.38 1.045 1.045 0 0 0 1.803-.717 12.017 12.017 0 0 0-24.032 0 1.044 1.044 0 0 0 1.803.716A14.057 14.057 0 0 1 25 14.475Z"/><path stroke="#000" stroke-linecap="round" stroke-linejoin="round" stroke-width="2" d="m16.965 16.987 4.93-10.468M24.41 14.487l3.747-7.954M30.217 15.471l2.917-6.194"/><path fill="#000" d="M8.19 40.033v-4.189H9.2v4.19H8.19Zm-3.934-4.11c.511 0 .956.084 1.334.255.385.17.677.407.877.71.208.305.311.649.311 1.034s-.103.73-.31 1.034c-.2.303-.493.54-.878.71-.378.164-.823.245-1.334.245-.51 0-.955-.081-1.333-.244a2.055 2.055 0 0 1-.878-.711c-.2-.304-.3-.649-.3-1.034s.1-.73.3-1.033c.208-.304.5-.54.878-.711.378-.17.822-.256 1.333-.256Zm0 .844c-.459 0-.83.103-1.11.31-.275.2-.412.482-.412.845 0 .356.14.637.422.845.282.2.648.3 1.1.3.467 0 .837-.1 1.111-.3.282-.2.423-.482.423-.845s-.141-.644-.423-.844c-.274-.208-.644-.311-1.11-.311Zm-.878 5.966v.767H9.39v.778H2.378v-2.245h5.823v-.766H2.356v-.778h6.845v2.244H3.378ZM18 40.933h-1.012v-5.089H18v5.09ZM13.233 38.8c-.311.519-.7.948-1.167 1.289a3.388 3.388 0 0 1-1.555.611v-.978c.496-.089.93-.315 1.3-.678.377-.362.666-.814.866-1.355.208-.548.315-1.14.322-1.778l1.012.067a5.54 5.54 0 0 1-.356 1.989l2.556 1.844-.567.767-2.411-1.778ZM18 41.389v3h-1.023V42.3h-5.966v-.911H18Zm4.743-6-3.311 9.444h-.878l3.311-9.444h.878Zm8.071 5.811h-8.111v-.889h3.555V39.29h-2.977v-3.356h6.966v.878h-5.966v1.6h6.055v.878h-3.078v1.022h3.556v.889Zm-.411 2.178v.9h-7.145v-2.434h1.023v1.534h6.122Zm8.52-3.1v4.1h-.977v-8.534h.978v3.423h1.078v1.01h-1.078Zm-4.9-4.134v1.934c0 1.718-.184 3.055-.555 4.01-.363.949-.955 1.438-1.777 1.468v-.978c.496-.067.848-.474 1.055-1.222.207-.749.311-1.808.311-3.178V37.1h-1.366v-.956h2.333Zm2.723 0V38.2c0 1.778-.211 3.156-.633 4.133-.422.978-1.07 1.486-1.945 1.523v-.978c1.067-.126 1.6-1.652 1.6-4.578v-1.2h-1.333v-.956h2.311Zm7.51 2.578c-.474.763-1.044 1.37-1.711 1.822-.667.445-1.363.667-2.089.667v-1c.57 0 1.119-.192 1.644-.578.534-.392.986-.918 1.356-1.577a6.635 6.635 0 0 0 .767-2.19l1.033.19a8.047 8.047 0 0 1-.567 1.833l3.567 2.522-.544.833-3.456-2.522Zm4.156 4.267v.989H40.3v-.99h8.11Z"/></svg>