<svg xmlns="http://www.w3.org/2000/svg" width="50" height="46" fill="none"><g clip-path="url(#a)"><path fill="#C46D3C" stroke="#000" stroke-linecap="round" stroke-linejoin="round" stroke-width="2" d="M35.096 17.664c-4.404 4.405-12.327 6.615-15.85 3.091-3.525-3.524-1.315-11.447 3.09-15.851 4.405-4.405 9.337-3.624 12.86-.1 3.524 3.523 4.305 8.456-.1 12.86Z"/><path fill="#EAEAEA" d="m18.037 18.905-1.89 2.644c-.224.313-.678.343-1.024.172a2.256 2.256 0 0 0-2.475 3.724c.234.204.507.358.803.451a1.007 1.007 0 0 1 .65.65 2.256 2.256 0 1 0 4.176-1.67c-.17-.345-.14-.797.173-1.022l2.643-1.892"/><path stroke="#000" stroke-linecap="round" stroke-linejoin="round" stroke-width="2" d="m18.037 18.905-1.89 2.644c-.224.313-.678.343-1.024.172a2.256 2.256 0 0 0-2.475 3.724c.234.204.507.358.803.451a1.007 1.007 0 0 1 .65.65 2.255 2.255 0 1 0 4.176-1.67c-.17-.345-.14-.797.173-1.022l2.643-1.892M31.381 15.966c-2.025 2.025-5.343 3.245-7.631 2.619"/></g><path fill="#000" d="M20.057 38.111a12.546 12.546 0 0 1-.223 1.9l2.578 3.167-.722.689-2.189-2.723c-.289.808-.674 1.449-1.155 1.923-.474.466-1.015.737-1.623.81v-1.033c.437-.081.823-.333 1.156-.755.34-.43.611-.985.811-1.667.2-.689.322-1.459.367-2.31h-2.19v-.979h2.179v-1.31h1.022v1.31h2.078v.978h-2.09Zm4.1 6.267h-1.011v-8.534h1.01v8.534Zm7.787-2.2v-6.334h1.012v6.334h-1.012Zm-1.422-4.722c0 1.251-.437 2.155-1.31 2.71-.868.556-2.06.834-3.579.834v-.867c.911 0 1.67-.1 2.278-.3.607-.2 1.04-.53 1.3-.989h-3.578V38h3.878c.022-.156.033-.322.033-.5v-.6h-3.91v-.856h4.888v1.412Zm2.634 6.822h-7.123v-2.7h1.011v1.744h6.112v.956Z"/><defs><clipPath id="a"><path fill="#fff" d="M10 0h30v30H10z"/></clipPath></defs></svg>