<svg xmlns="http://www.w3.org/2000/svg" width="50" height="46" fill="none"><path fill="#FFCC93" stroke="#000" stroke-linecap="round" stroke-width="2" d="M23.37 2.867c-1.47-.716-3.123-.035-3.89 1.41-5.541 10.437-8.588 22.295-7.32 23.562 1.269 1.27 13.126-1.778 23.563-7.318 1.446-.767 2.126-2.42 1.41-3.892-.935-1.923-2.682-4.763-5.84-7.92-3.159-3.159-5.999-4.907-7.922-5.842Z"/><path stroke="#000" stroke-linecap="round" stroke-width="2" d="M34.58 21.114c-.691-1.762-2.426-5.238-6.41-9.222-3.984-3.984-7.46-5.718-9.223-6.409"/><path fill="#C91717" d="M14.2 18.663c.558.207.573.231 1.204.231A5.141 5.141 0 0 0 20.46 14.7c.221-1.18.229-2.076-.355-3.124s-1.126-2.014-2.245-2.447"/><path stroke="#000" stroke-linecap="round" stroke-width="2" d="M14.2 18.663c.558.207.573.231 1.204.231A5.141 5.141 0 0 0 20.46 14.7c.221-1.18.229-2.076-.355-3.124s-1.126-2.014-2.245-2.447"/><path fill="#C91717" d="M24.605 25.417a4.499 4.499 0 1 0-8.657 2.439"/><path stroke="#000" stroke-linecap="round" stroke-width="2" d="M24.605 25.417a4.499 4.499 0 1 0-8.657 2.439"/><path fill="#46A132" stroke="#000" stroke-linecap="round" stroke-width="2" d="M28.75 18.125a2.5 2.5 0 1 1-5 0 2.5 2.5 0 0 1 5 0Z"/><path fill="#000" d="M13.589 44.378h-1v-8.534h1v8.534Zm-2.933-1.556c.496-.074.93-.204 1.3-.389v.967c-.274.148-.645.267-1.111.356-.46.081-.967.122-1.523.122H6.167v-.956h.922V37.1h-.878v-.956h5.322v.956h-.877v5.722Zm-1.778.1c.2 0 .463-.007.789-.022v-5.8H8.089v5.822h.789Zm13.288-2.644v4.1h-1v-8.534h1v3.423h1.122v1.01h-1.122Zm-4-3.167c-.023 1.015-.104 1.904-.245 2.667l2.578 3.41-.789.623-2.111-2.844c-.289.874-.663 1.559-1.122 2.055-.46.497-.99.782-1.59.856v-1.056c.46-.089.856-.385 1.19-.889.333-.503.592-1.17.777-2 .186-.83.286-1.77.3-2.822h-2.077v-.967h5.1v.967h-2.011Zm8.976-1.722-3.31 9.444h-.879l3.311-9.444h.878Zm7.338 3.278h1.122v.9H34.48v.989h-1v-4.712h1v.79h1.122v.9H34.48v1.133Zm-4.844 1.61c-.504 0-.945-.088-1.323-.266a2.116 2.116 0 0 1-.877-.767 2.121 2.121 0 0 1-.311-1.144c0-.43.103-.807.31-1.133.208-.334.5-.59.878-.767.378-.185.819-.278 1.323-.278.503 0 .944.093 1.322.278.385.178.678.433.878.767.207.326.31.703.31 1.133 0 .43-.103.811-.31 1.144a2.04 2.04 0 0 1-.867.767c-.378.178-.822.267-1.333.267Zm0-3.488c-.46 0-.826.118-1.1.355-.274.23-.412.549-.412.956 0 .407.138.73.412.967.274.23.64.344 1.1.344.459 0 .826-.115 1.1-.344.281-.237.422-.56.422-.967 0-.407-.14-.726-.422-.956-.274-.237-.641-.355-1.1-.355Zm1.51 4.033c1.03 0 1.86.145 2.49.434.637.288.955.737.955 1.344 0 .607-.318 1.06-.955 1.356-.63.288-1.46.433-2.49.433-1.029 0-1.862-.145-2.5-.433-.629-.297-.944-.749-.944-1.356 0-.607.315-1.056.945-1.344.637-.29 1.47-.434 2.5-.434Zm0 2.7c.704 0 1.275-.078 1.712-.233.444-.156.667-.385.667-.689 0-.304-.223-.53-.667-.678-.437-.155-1.008-.233-1.711-.233-.704 0-1.278.078-1.723.233-.437.148-.655.374-.655.678 0 .304.218.533.655.689.445.155 1.019.233 1.723.233Zm12.366-2.589h-1.01v-5.089h1.01v5.09ZM38.745 38.8c-.31.519-.7.948-1.166 1.289a3.388 3.388 0 0 1-1.556.611v-.978c.497-.089.93-.315 1.3-.678.378-.362.667-.814.867-1.355.207-.548.315-1.14.322-1.778l1.011.067a5.54 5.54 0 0 1-.355 1.989l2.555 1.844-.566.767-2.411-1.778Zm4.767 2.589v3H42.49V42.3h-5.967v-.911h6.99Z"/></svg>