<svg width="current" height="current" viewBox="0 0 21 21" fill="none" xmlns="http://www.w3.org/2000/svg">
<path fill-rule="evenodd" clip-rule="evenodd" d="M7.31114 13.5122C10.5153 16.7163 13.4845 17.0672 14.3561 17.0997C15.4095 17.138 16.4845 16.278 16.9495 15.3972C16.2078 14.5272 15.242 13.8522 14.1845 13.1205C13.5603 13.7438 12.7911 14.9022 11.767 14.4872C11.1845 14.253 9.74614 13.5905 8.48947 12.333C7.23281 11.0755 6.57031 9.63801 6.33447 9.05635C5.91947 8.03051 7.08114 7.25968 7.70531 6.63551C6.97364 5.56051 6.31031 4.56968 5.44197 3.86551C4.54864 4.33218 3.68364 5.39885 3.72281 6.46635C3.75531 7.33801 4.10614 10.3072 7.31114 13.5122ZM14.2945 18.7655C13.0945 18.7213 9.69364 18.2513 6.13197 14.6905C2.57114 11.1288 2.10197 7.72885 2.05697 6.52801C1.99031 4.69801 3.39197 2.92051 5.01114 2.22635C5.20612 2.14215 5.41964 2.1101 5.63075 2.13333C5.84186 2.15656 6.0433 2.23427 6.21531 2.35885C7.55531 3.33635 8.47947 4.81718 9.27364 5.97718C9.43885 6.21839 9.51453 6.50976 9.4876 6.80088C9.46066 7.092 9.3328 7.36454 9.12614 7.57135L7.99614 8.70218C8.25864 9.28135 8.79281 10.2797 9.66781 11.1547C10.5428 12.0297 11.5411 12.5638 12.1211 12.8263L13.2503 11.6963C13.4577 11.4888 13.7314 11.3608 14.0236 11.3348C14.3158 11.3087 14.6079 11.3863 14.8486 11.5538C16.032 12.3738 17.422 13.2847 18.4353 14.5822C18.57 14.7554 18.6557 14.9617 18.6834 15.1794C18.7111 15.3971 18.6798 15.6182 18.5928 15.8197C17.8953 17.4472 16.1303 18.833 14.2945 18.7655Z" fill="#FFC107"/>
</svg>
