<svg width="current" height="current" viewBox="0 0 20 20" fill="none" xmlns="http://www.w3.org/2000/svg">
<path fill-rule="evenodd" clip-rule="evenodd" d="M10 1.66675C11.9891 1.66675 13.8968 2.45692 15.3033 3.86345C16.7098 5.26997 17.5 7.17762 17.5 9.16675C17.5 11.7284 16.1033 13.8251 14.6317 15.3292C13.8964 16.0726 13.0941 16.7466 12.235 17.3426L11.88 17.5842L11.7133 17.6951L11.3992 17.8951L11.1192 18.0659L10.7725 18.2676C10.5372 18.4019 10.2709 18.4725 10 18.4725C9.72906 18.4725 9.4628 18.4019 9.2275 18.2676L8.88083 18.0659L8.4475 17.7992L8.2875 17.6951L7.94583 17.4676C7.01903 16.8405 6.15575 16.1243 5.36833 15.3292C3.89667 13.8242 2.5 11.7284 2.5 9.16675C2.5 7.17762 3.29018 5.26997 4.6967 3.86345C6.10322 2.45692 8.01088 1.66675 10 1.66675ZM10 3.33341C8.4529 3.33341 6.96917 3.948 5.87521 5.04196C4.78125 6.13592 4.16667 7.61965 4.16667 9.16675C4.16667 11.1017 5.22667 12.8001 6.55917 14.1634C7.13211 14.7434 7.75138 15.2757 8.41083 15.7551L8.7925 16.0267C8.91583 16.1129 9.03444 16.1929 9.14833 16.2667L9.47333 16.4751L9.75917 16.6492L10 16.7901L10.3792 16.5659L10.685 16.3742C10.8478 16.2709 11.0219 16.1551 11.2075 16.0267L11.5892 15.7551C12.2486 15.2757 12.8679 14.7434 13.4408 14.1634C14.7733 12.8009 15.8333 11.1017 15.8333 9.16675C15.8333 7.61965 15.2188 6.13592 14.1248 5.04196C13.0308 3.948 11.5471 3.33341 10 3.33341ZM10 5.83342C10.8841 5.83342 11.7319 6.1846 12.357 6.80973C12.9821 7.43485 13.3333 8.28269 13.3333 9.16675C13.3333 10.0508 12.9821 10.8987 12.357 11.5238C11.7319 12.1489 10.8841 12.5001 10 12.5001C9.11594 12.5001 8.2681 12.1489 7.64298 11.5238C7.01786 10.8987 6.66667 10.0508 6.66667 9.16675C6.66667 8.28269 7.01786 7.43485 7.64298 6.80973C8.2681 6.1846 9.11594 5.83342 10 5.83342ZM10 7.50008C9.55797 7.50008 9.13405 7.67568 8.82149 7.98824C8.50893 8.3008 8.33333 8.72472 8.33333 9.16675C8.33333 9.60878 8.50893 10.0327 8.82149 10.3453C9.13405 10.6578 9.55797 10.8334 10 10.8334C10.442 10.8334 10.8659 10.6578 11.1785 10.3453C11.4911 10.0327 11.6667 9.60878 11.6667 9.16675C11.6667 8.72472 11.4911 8.3008 11.1785 7.98824C10.8659 7.67568 10.442 7.50008 10 7.50008Z" fill="#FFC107"/>
</svg>
