<svg xmlns="http://www.w3.org/2000/svg" width="20" height="21" fill="none"><path fill="#FFC107" fill-rule="evenodd" d="M6.803 13.94c3.205 3.205 6.174 3.556 7.045 3.588 1.054.039 2.129-.821 2.594-1.702-.742-.87-1.708-1.545-2.765-2.277-.624.624-1.394 1.782-2.418 1.367-.582-.234-2.02-.897-3.277-2.154-1.257-1.258-1.92-2.695-2.155-3.277-.415-1.026.746-1.797 1.37-2.42-.731-1.076-1.395-2.067-2.263-2.77-.893.466-1.758 1.533-1.719 2.6.032.872.383 3.84 3.588 7.046Zm6.984 5.254c-1.2-.044-4.601-.514-8.163-4.075-3.56-3.561-4.03-6.961-4.075-8.162-.067-1.83 1.335-3.608 2.954-4.302a1.225 1.225 0 0 1 1.204.133c1.34.977 2.265 2.458 3.059 3.618A1.253 1.253 0 0 1 8.618 8l-1.13 1.13c.263.58.797 1.578 1.672 2.453.875.875 1.873 1.41 2.453 1.672l1.13-1.13a1.25 1.25 0 0 1 1.598-.142c1.183.82 2.573 1.73 3.586 3.028a1.225 1.225 0 0 1 .158 1.237c-.698 1.628-2.463 3.014-4.298 2.946Z" clip-rule="evenodd"/></svg>