<svg xmlns="http://www.w3.org/2000/svg" width="20" height="21" fill="none"><path fill="current" fill-rule="evenodd" d="M10 2.417a7.5 7.5 0 0 1 7.5 7.5c0 2.561-1.397 4.658-2.868 6.162a17.003 17.003 0 0 1-2.397 2.014l-.355.241-.167.111-.314.2-.28.17-.346.203a1.558 1.558 0 0 1-1.546 0l-.346-.202-.434-.267-.16-.104-.341-.227a17.168 17.168 0 0 1-2.578-2.139C3.897 14.574 2.5 12.48 2.5 9.917a7.5 7.5 0 0 1 7.5-7.5Zm0 1.666a5.833 5.833 0 0 0-5.833 5.834c0 1.935 1.06 3.633 2.392 4.996.573.58 1.192 1.113 1.852 1.592l.382.272c.123.086.241.166.355.24l.325.208.286.174.241.141.38-.224.305-.192c.163-.103.337-.219.522-.347l.382-.272c.66-.48 1.279-1.012 1.852-1.592 1.332-1.362 2.392-3.061 2.392-4.996A5.833 5.833 0 0 0 10 4.083Zm0 2.5a3.333 3.333 0 1 1 0 6.667 3.333 3.333 0 0 1 0-6.667Zm0 1.667a1.667 1.667 0 1 0 0 3.333 1.667 1.667 0 0 0 0-3.333Z" clip-rule="evenodd"/></svg>