<svg width="current" height="current" viewBox="0 0 21 20" fill="none" xmlns="http://www.w3.org/2000/svg">
<path fill-rule="evenodd" clip-rule="evenodd" d="M14.1009 9.28073C14.2884 9.46826 14.3937 9.72256 14.3937 9.98773C14.3937 10.2529 14.2884 10.5072 14.1009 10.6947L8.4439 16.3517C8.35165 16.4472 8.24131 16.5234 8.1193 16.5758C7.9973 16.6282 7.86608 16.6558 7.7333 16.657C7.60052 16.6581 7.46884 16.6328 7.34594 16.5826C7.22305 16.5323 7.1114 16.458 7.0175 16.3641C6.92361 16.2702 6.84936 16.1586 6.79908 16.0357C6.74879 15.9128 6.72349 15.7811 6.72465 15.6483C6.7258 15.5155 6.75339 15.3843 6.8058 15.2623C6.85821 15.1403 6.93439 15.03 7.0299 14.9377L11.9799 9.98773L7.0299 5.03773C6.84774 4.84913 6.74694 4.59652 6.74922 4.33433C6.7515 4.07213 6.85667 3.82132 7.04208 3.63591C7.22749 3.4505 7.4783 3.34533 7.7405 3.34306C8.00269 3.34078 8.2553 3.44157 8.4439 3.62373L14.1009 9.28073Z" fill="current"/>
</svg>
