<svg width="current" height="current" viewBox="0 0 21 21" fill="none" xmlns="http://www.w3.org/2000/svg">
<g clip-path="url(#clip0_885_2818)">
<path fill-rule="evenodd" clip-rule="evenodd" d="M9.91098 13.589C10.0673 13.7452 10.2792 13.833 10.5002 13.833C10.7211 13.833 10.933 13.7452 11.0893 13.589L15.8035 8.87485C15.9553 8.71768 16.0393 8.50718 16.0374 8.28868C16.0355 8.07019 15.9478 7.86118 15.7933 7.70667C15.6388 7.55216 15.4298 7.46452 15.2113 7.46262C14.9928 7.46073 14.7823 7.54472 14.6252 7.69652L10.5002 11.8215L6.37515 7.69652C6.21798 7.54472 6.00748 7.46073 5.78898 7.46262C5.57049 7.46452 5.36147 7.55216 5.20697 7.70667C5.05246 7.86118 4.96482 8.07019 4.96292 8.28868C4.96102 8.50718 5.04502 8.71768 5.19682 8.87485L9.91098 13.589Z" fill="#121212"/>
</g>
<defs>
<clipPath id="clip0_885_2818">
<rect width="20" height="20" fill="white" transform="matrix(1 0 0 -1 0.5 20.5)"/>
</clipPath>
</defs>
</svg>
