<svg width="current" height="current" viewBox="0 0 21 21" fill="none" xmlns="http://www.w3.org/2000/svg">
<path d="M9.42469 16.0125C8.12156 16.0125 6.84769 15.626 5.76418 14.9021C4.68066 14.1781 3.83617 13.1491 3.33748 11.9451C2.83879 10.7412 2.70831 9.4164 2.96254 8.13831C3.21677 6.86022 3.84429 5.68622 4.76574 4.76476C5.68719 3.84331 6.8612 3.21579 8.13929 2.96156C9.41738 2.70734 10.7422 2.83782 11.9461 3.3365C13.15 3.83519 14.1791 4.67969 14.903 5.7632C15.627 6.84671 16.0134 8.12058 16.0134 9.42371C16.0134 10.289 15.843 11.1457 15.5119 11.9451C15.1808 12.7445 14.6955 13.4708 14.0836 14.0827C13.4718 14.6945 12.7455 15.1798 11.9461 15.5109C11.1467 15.842 10.2899 16.0125 9.42469 16.0125ZM9.42469 4.15621C8.38634 4.15621 7.3713 4.46412 6.50795 5.041C5.64459 5.61788 4.97168 6.43781 4.57432 7.39713C4.17696 8.35644 4.073 9.41204 4.27557 10.4304C4.47814 11.4488 4.97815 12.3843 5.71238 13.1185C6.44661 13.8527 7.38207 14.3528 8.40047 14.5553C9.41887 14.7579 10.4745 14.6539 11.4338 14.2566C12.3931 13.8592 13.213 13.1863 13.7899 12.323C14.3668 11.4596 14.6747 10.4446 14.6747 9.40621C14.6747 8.01383 14.1216 6.67847 13.137 5.6939C12.1524 4.70934 10.8171 4.15621 9.42469 4.15621Z" fill="current"/>
<path d="M17.4997 18.1565C17.4135 18.1569 17.3281 18.1401 17.2484 18.107C17.1688 18.0739 17.0966 18.0253 17.036 17.964L13.4222 14.3502C13.3063 14.2258 13.2432 14.0613 13.2462 13.8913C13.2492 13.7212 13.3181 13.559 13.4383 13.4388C13.5585 13.3186 13.7208 13.2497 13.8908 13.2467C14.0608 13.2437 14.2253 13.3068 14.3497 13.4227L17.9635 17.0365C18.0864 17.1595 18.1554 17.3263 18.1554 17.5002C18.1554 17.6741 18.0864 17.8409 17.9635 17.964C17.9029 18.0253 17.8307 18.0739 17.751 18.107C17.6714 18.1401 17.5859 18.1569 17.4997 18.1565Z" fill="current"/>
</svg>
