<svg width="current" height="current" viewBox="0 0 16 16" fill="none" xmlns="http://www.w3.org/2000/svg">
<path d="M0.797921 13.4743H0V15.16H0.797921V13.4743Z" fill="#FFC107"/>
<path d="M1.60084 11.7888H0.797675L0.797921 13.4743L1.60084 13.4745V11.7888Z" fill="#FFC107"/>
<path d="M2.39942 10.1032H1.6015L1.60084 11.7888L2.39942 11.7889V10.1032Z" fill="#FFC107"/>
<path d="M3.20235 8.42302H2.39918L2.39942 10.1032L3.20235 10.1032V8.42302Z" fill="#FFC107"/>
<path d="M4.00092 6.73744H3.203L3.20235 8.42302L4.00092 8.42313V6.73744Z" fill="#FFC107"/>
<path d="M4.7986 5.05133H4.00068L4.00092 6.73744L4.7986 6.73701V5.05133Z" fill="#FFC107"/>
<path d="M5.60152 3.36575H4.79835L4.7986 5.05133L5.60152 5.05144V3.36575Z" fill="#FFC107"/>
<path d="M6.4001 1.68558H5.60218L5.60152 3.36575L6.4001 3.36573V1.68558Z" fill="#FFC107"/>
<path d="M7.19777 0.839819H6.39985L6.4001 1.68558L7.19777 1.68542V0.839819Z" fill="#FFC107"/>
<path d="M8.79862 0H7.19753L7.19777 0.839819L8.79862 0.840078V0Z" fill="#FFC107"/>
<path d="M8.79862 4.21151H7.19753V9.26303H8.79862V4.21151Z" fill="#FFC107"/>
<path d="M7.19777 13.4746H8.79886V12.6345H9.60203V10.9488H8.79886V10.1032H7.19777V10.9488H6.39985V12.6345H7.19777V13.4746Z" fill="#FFC107"/>
<path d="M9.6022 0.839819L8.79862 0.840078L8.79903 1.68542H9.6022V0.839819Z" fill="#FFC107"/>
<path d="M10.3987 1.68558H9.6008V3.36573H10.3987V1.68558Z" fill="#FFC107"/>
<path d="M11.1964 3.36575L10.3987 3.36573L10.3985 5.05144H11.1964V3.36575Z" fill="#FFC107"/>
<path d="M11.9993 5.05133L11.1964 5.05144L11.1962 6.73701H11.9993V5.05133Z" fill="#FFC107"/>
<path d="M12.7979 6.73744L11.9993 6.73701L12 8.42313H12.7979V6.73744Z" fill="#FFC107"/>
<path d="M13.6008 8.42302L12.7979 8.42313L12.7977 10.1032H13.6008V8.42302Z" fill="#FFC107"/>
<path d="M14.3994 10.1032L13.6008 10.1032L13.6015 11.7889H14.3994V10.1032Z" fill="#FFC107"/>
<path d="M15.197 15.1599L0.797921 15.16L0.797675 16H15.197V15.1599Z" fill="#FFC107"/>
<path d="M15.1971 11.7888L14.3994 11.7889L14.3992 13.4745H15.1971V11.7888Z" fill="#FFC107"/>
<path d="M16 13.4743L15.1971 13.4745L15.197 15.1599L16 15.16V13.4743Z" fill="#FFC107"/>
</svg>
