<svg xmlns="http://www.w3.org/2000/svg" width="16" height="16" fill="none"><path fill="#FFC107" d="M.798 13.474H0v1.686h.798v-1.686ZM1.6 11.789H.799v1.685H1.6V11.79ZM2.4 10.103h-.798L1.6 11.79h.798v-1.686ZM3.202 8.423H2.4v1.68h.803v-1.68ZM4 6.737h-.797v1.686H4V6.737ZM4.799 5.051H4v1.686h.798V5.051ZM5.602 3.366h-.804V5.05h.804V3.366ZM6.4 1.686h-.798v1.68H6.4v-1.68ZM7.198.84H6.4v.846h.798V.84ZM8.799 0H7.198v.84h1.6V0ZM8.799 4.212H7.198v5.051h1.6V4.212ZM7.198 13.475h1.6v-.84h.804v-1.686h-.803v-.846H7.198v.846H6.4v1.685h.798v.84ZM9.602.84H8.8v.845h.803V.84ZM10.399 1.686H9.6v1.68h.798v-1.68ZM11.196 3.366H10.4V5.05h.797V3.366ZM12 5.051h-.804v1.686H12V5.051ZM12.798 6.737h-.799L12 8.423h.798V6.737ZM13.6 8.423h-.802v1.68h.803v-1.68ZM14.4 10.103h-.8l.002 1.686h.797v-1.686ZM15.197 15.16H.797V16h14.4v-.84ZM15.197 11.789H14.4v1.686h.798v-1.686Z"/><path fill="#FFC107" d="M16 13.474h-.803v1.686H16v-1.686Z"/></svg>