<svg xmlns="http://www.w3.org/2000/svg" width="40" height="40" fill="none"><path fill="#A31D20" d="M40 15.238h-1.9v9.524H40v-9.524ZM38.1 24.762h-1.913v3.813H38.1v-3.813ZM38.1 11.425h-1.913v3.813H38.1v-3.813ZM36.187 28.575h-1.9v3.8h1.9v-3.8ZM36.187 7.613h-1.9v3.812h1.9V7.613ZM34.288 32.375h-1.913v1.913h1.913v-1.913ZM34.288 5.712h-1.913v1.9h1.913v-1.9ZM32.374 34.288h-3.8v1.9h3.8v-1.9ZM32.374 3.813h-3.8v1.9h3.8v-1.9ZM28.574 36.188h-3.812V38.1h3.812v-1.913ZM28.574 1.9h-3.812v1.912h3.812V1.9ZM24.763 38.1h-9.525V40h9.525v-1.9ZM22.863 24.762h-5.725v1.9h-1.9v5.713h1.9v1.913h5.725v-1.913h1.9v-5.712h-1.9v-1.9ZM22.863 5.712h-5.725v1.9h-1.9V19.05h1.9v3.812h5.725V19.05h1.9V7.612h-1.9v-1.9ZM24.763 0h-9.525v1.9h9.525V0ZM15.238 36.188h-3.812V38.1h3.812v-1.913ZM15.238 1.9h-3.812v1.912h3.812V1.9ZM11.426 34.288H7.613v1.9h3.813v-1.9ZM11.426 3.813H7.613v1.9h3.813v-1.9ZM7.613 32.375h-1.9v1.913h1.9v-1.913Z"/><path fill="#A31D20" d="M7.613 5.712h-1.9v1.9h1.9v-1.9ZM5.713 28.575h-1.9v3.8h1.9v-3.8ZM5.713 7.613h-1.9v3.812h1.9V7.613ZM3.813 24.762H1.9v3.813h1.913v-3.813ZM3.813 11.425H1.9v3.813h1.913v-3.813ZM1.9 15.238H0v9.524h1.9v-9.524Z"/></svg>