<svg xmlns="http://www.w3.org/2000/svg" width="26" height="21" fill="none"><path fill="#fff" d="M21.652 13h-.978v5h.978v-5ZM20.674 18h-.98v.998h.98v-.997ZM20.673 12.003h-.978V13h.979v-.997ZM19.696 18.998h-.985v1.004h.985v-1.004ZM19.696 10.999h-.985v1.004h.985v-1.004ZM18.71 20.002h-4.905V21h4.906v-.998ZM15.768 17.003h-.979v.998h.979v-.998Z"/><path fill="#fff" d="M14.79 4.003V3h.978v7.002h-2.942v2.002h.979v-1.004h4.906L18.71 10h-1.957V4.003h1.957V3h.985v-.997h.979V0h-2.942v.997h-.979v1.005h-.985V.997h-.978V0H9.884v2.002h.979v.997h2.942v1.004h.985ZM13.805 18.998h-.979v1.004h.98l-.001-1.004ZM13.805 13.998h-.979v3.005h.979v-3.005Z"/><path fill="#fff" d="M13.805 4.003h-.979v.998h.979v-.998ZM11.848 18v-5h-.985v5h-3.92v.998h5.883v-.997h-.979ZM12.826 12.003h-.979V13h.979v-.997ZM12.826 8.997h-.979V10h.98l-.001-1.004ZM12.826 5h-.979v.998h.979V5ZM11.848 5.998h-.985v1.004h.985V5.998ZM11.847 8.997V8h-.984v-.998h-.979V8H6.942v.997h4.905ZM7.92 15.002h-.978v.997h.979v-.997ZM6.943 17.003h-.985v.998h.985v-.998ZM6.943 12.003h-.985v2.999h.985v-3ZM6.943 8.997h-.985V10h.985V8.997ZM5.958 16h-.979v1.003h.98L5.957 16ZM5.958 10H4.98v.998h.979v-.997ZM4.979 10.998H4V16h.979v-5Z"/></svg>