<svg xmlns="http://www.w3.org/2000/svg" width="26" height="24" fill="none"><path fill="#fff" d="M19.816 7.997V7h-.934v.997h-.928v1.004h2.79v1.995h-2.79V12h-2.79v.997h-2.789v1.004h-2.79V15H6.79v.997H4.934V14H6.79v-1.004H4.934V12H4v10h2.79v-1.004H4.934V19H6.79v-1.004h2.795V17h2.79v-1.004h2.79v-.998h2.79v-.997h2.789V15h-.928v.997h1.862V6.002h-.934v1.995h-.928ZM20.745 4.999h-1.862v1.003h1.86L20.746 5Z"/><path fill="#fff" d="M19.816 15.996h-1.862V17h1.862v-1.004ZM18.883 6.002h-1.856V7h1.855v-.998ZM18.883 4.001h-1.856V5h1.856V4ZM17.954 17h-2.79v.997h2.79V17ZM17.954 9.001h-2.79V10h2.79V9ZM17.026 4.999h-1.862v1.003h1.862V5ZM17.026 2.998h-1.862V4h1.862V2.998ZM15.164 4.002h-1.86v.997h1.86v-.997ZM15.165 2h-1.862v.997h1.861L15.165 2ZM15.164 17.997h-2.79v1.005h2.79v-1.005ZM15.164 9.999h-2.79v.997h2.79v-.997ZM13.302 2.998h-.928V4h.928V2.998ZM12.376 19.002h-2.79v.997h2.79v-.997ZM12.376 10.997h-2.79V12h2.79v-1.004ZM9.585 4.002v.997H8.65v2.999h.934V9h2.79V7.998h.927v-3h-.928v-.997h-.934V2.998h-.927V4h-.928Zm1.855.997v1.004h.934V7h-.934v-.997h-.927V4.999h.927ZM10.513 2H8.65v.997h1.862V2Z"/><path fill="#fff" d="M9.586 19.998H6.79v.998h2.796v-.997ZM9.586 12H6.79v.997h2.796v-.996ZM8.65 7.998h-.926V9h.928L8.65 7.998ZM7.724 9.002H6.79v.997h.934V9ZM6.789 9.999H5.86v.997h.928v-.997ZM5.862 10.997h-.928V12h.928v-1.003Z"/></svg>