<svg xmlns="http://www.w3.org/2000/svg" width="26" height="24" fill="none"><path fill="#fff" d="M21.38 18.004h-.866v1.994h.867v-1.994ZM20.514 19.998h-.873v1.004h.873V20ZM20.515 17h-1.74v1.004h1.74V17ZM19.641 21.002h-1.734V22h1.734v-.998ZM18.773 16.002h-.866V17h.866v-.998Z"/><path fill="#fff" d="M17.907 19.001h-.873v2.002h.873V19ZM17.035 14.999h-.867v1.004h1.74V9.999h-.873v5ZM17.035 18.004h-.867V19h.867v-.997ZM17.035 7h-.867v2.998h.867V7ZM15.3 16.002V17h-4.346v1.004h5.214v-2.001h-.867ZM16.166 6.003H15.3V7h.867v-.997ZM15.301 5.005h-.872v.998h.872v-.998ZM14.428 4.001h-.867v1.004h.868V4.001ZM13.56 3.004h-.873V4h.873v-.997ZM12.688 13.004h-.867v.997h.867v-.997ZM10.953 16.002H8.34V17h2.613v-.998ZM10.954 13.004h-1.74v.997h1.74v-.997ZM9.213 12H8.34v1.004h.873V12ZM8.342 14.998h-.868v1.004h.868V15ZM8.342 11.003h-.868V12h.868v-.997ZM12.688 2H6.607v1.004h6.08V2ZM7.474 14.001h-.867v.997h.867v-.997ZM7.474 9.999h-.867v1.004h.867V9.999ZM6.606 13.004h-.873v.997h.873v-.997ZM6.606 8.004h-.873v1.994h.873V8.004ZM6.606 3.004h-.873V4h.873v-.997ZM5.734 12h-.867v1.004h.867V12ZM5.734 4.001h-.867v1.004h.867V4.001ZM4.867 5.005H4V12h.867V5.005Z"/></svg>