<svg xmlns="http://www.w3.org/2000/svg" width="29" height="23" fill="none"><path fill="#fff" d="M24.53 7.63h-.982v4.425h.982V7.63ZM23.548 12.055h-.975v2.212h.975v-2.212ZM23.548 5.425h-.975V7.63h.975V5.425ZM22.573 14.267h-.982v2.206h.982v-2.206ZM22.573 7.63h-.982v4.425h.982V7.63Z"/><path fill="#fff" d="M22.573 4.315h-.982v1.11h.982v-1.11ZM21.591 16.473h-.975v1.11h.975v-1.11ZM21.591 12.055h-.975v2.212h.975v-2.212ZM21.591 3.212h-.975v1.103h.975V3.212ZM20.616 17.582h-.975v1.103h.975v-1.103ZM20.616 14.267h-.975v1.103h.975v-1.103ZM20.616 7.63h-.975v1.11h.975V7.63ZM19.641 15.37h-.982v1.103h.982V15.37ZM19.641 8.74h-.982v1.102h.982V8.74Z"/><path fill="#fff" d="M20.616 2.103H18.66v1.11h1.957v-1.11ZM19.641 18.685h-1.957v1.11h1.957v-1.11ZM18.66 12.055h-.976v1.103h.975v-1.103ZM18.66 5.425h-.976v1.102h.975V5.425ZM18.66 16.473h-1.95v1.11h1.95v-1.11ZM17.684 3.212h-1.957v1.103h1.957V3.212ZM17.684 19.795h-2.932v1.102h2.932v-1.102ZM16.71 14.267h-.983v1.103h.982v-1.103ZM16.71 17.582h-2.94v1.103h2.94v-1.103ZM14.752 7.63v1.11h-1.956v1.102h-.976v2.213h-.981v1.103h-.975v1.11h2.932v-1.11h1.956v-1.103h.975V9.842h.982V6.527h-.982V7.63h-.975ZM15.727 5.425h-.975v1.102h.975V5.425ZM18.66 1h-4.89v1.103h4.89V1Z"/><path fill="#fff" d="M14.752 6.527h-1.956V7.63h1.956V6.527ZM14.752 20.897H9.864V22h4.888v-1.103ZM13.77 15.37h-.974v1.103h.975V15.37ZM13.77 18.685H9.865v1.11h3.907v-1.11ZM12.796 7.63h-.976v1.11h.976V7.63ZM13.77 2.103H10.84v1.11h2.932v-1.11ZM12.796 16.473h-1.957v1.11h1.957v-1.11ZM11.82 8.74h-.981v1.102h.981V8.74ZM11.82 5.425H9.864v1.102h1.956V5.425ZM10.839 9.842h-.975v2.213h.975V9.842ZM10.839 3.212H8.882v1.103h1.957V3.212ZM9.864 19.795H7.907v1.102h1.957v-1.102ZM9.864 12.055h-.982v1.103h.982v-1.103ZM8.882 15.37h-.975v1.103h.975V15.37ZM8.882 7.63h-.975v2.212h.975V7.63ZM8.882 4.315h-.975v1.11h.975v-1.11ZM7.907 18.685h-.975v1.11h.975v-1.11ZM7.907 5.425h-.975v1.102h.975V5.425ZM6.932 17.582H5.95v1.103h.982v-1.103ZM6.932 12.055H5.95v2.212h.982v-2.212ZM6.932 6.527H5.95V8.74h.982V6.527ZM5.95 15.37h-.975v2.212h.975V15.37ZM5.95 8.74h-.975v2.205h.975V8.74ZM4.975 10.945H4v4.425h.975v-4.425Z"/></svg>