<svg xmlns="http://www.w3.org/2000/svg" width="21" height="23" fill="none"><path fill="#fff" d="M16.038 8.002H4.863V6.001H4V9h.863v5.998h.857V19h.864v-.998h7.733v.998h.858v-4.003h.863V9h.857V6h-.857v2.002ZM14.318 17H6.583v-.997h7.733v.997Zm0-2.999h-.858v.998h-.863V14h-.858v.998h-.863V14h-.857v.998H9.16V14h-.863v.998h-.857V14h-.857v-.997h.857V14h.857v-.997h.863V14h.858v-.997h.857V14h.863v-.997h.858V14h.863v-.997h.857V14ZM15.174 12H5.72V11h9.455V12Zm0-1.995H5.72V9h9.455v1.004ZM15.174 1h-2.577v.998h2.577V1ZM13.46 21.003H7.441V19h-.857V22h7.734v-2.999h-.858v2.002ZM12.597 1.998h-.858V3h.857V1.998ZM11.739 3.001H5.72V4h6.019v-.998Z"/><path fill="#fff" d="M16.037 6V1.997h-.863v3.006H5.72V3.999h-.858V6h11.175Z"/></svg>