<svg xmlns="http://www.w3.org/2000/svg" width="30" height="23" fill="none"><path fill="#fff" d="M24.334 13.43H23.32v-1.147h-1.021v1.147h-1.015v1.14H19.25v-1.14h-1.014v-1.147h-3.05v1.147h-2.036v1.14H10.1v-1.14H9.08v-1.147h-3.05v1.147H5.015v1.14h1.014v3.428H7.05V15.71h15.248v2.288h1.022V15.71h1.014v-1.14h1.02v-3.427h-1.02v2.287ZM22.299 17.998h-1.015v1.147H22.3v-1.147ZM22.299 5.428h-1.015v1.14H22.3v-1.14ZM21.284 4.288h-1.015v1.14h1.015v-1.14ZM21.283 19.145H8.063v1.14h13.22v-1.14ZM19.249 5.428h-1.015v1.14h1.015v-1.14ZM20.27 3.14h-2.036v1.147h2.035V3.14ZM17.22 6.567H16.2v1.148h1.02V6.567ZM17.22 4.288H16.2v1.14h1.02v-1.14ZM15.184 5.428h-1.021v1.14h1.02v-1.14ZM13.149 6.567h-1.014v1.148h1.014V6.567ZM13.149 4.288h-1.014v1.14h1.014v-1.14ZM18.235 2h-7.12v1.14h7.12V2ZM11.114 5.428H10.1v1.14h1.014v-1.14ZM11.113 3.14H9.078v1.147h2.035V3.14ZM9.078 4.287H8.063v1.14h1.014v-1.14ZM8.064 17.998H7.05v1.147h1.014v-1.147ZM8.064 5.428H7.05v1.14h1.014v-1.14Z"/><path fill="#fff" d="M24.334 11.143V9.995H23.32V6.567h-1.021v3.428H7.05V6.568H6.03v3.427H5.014v1.147h19.319Z"/><path fill="#fff" d="M5.015 11.142H4v2.288h1.015v-2.288Z"/></svg>