<svg xmlns="http://www.w3.org/2000/svg" width="27" height="23" fill="none"><path fill="#fff" d="M21.742 4h-.885v-.998h-.891V1.998h-1.77V1H8.43v.998h6.213v1.004h1.776v.997h.885v1.004h.89v4.994h-.89v1.004h-.885v10.002H6.66V22h12.42v-.997h.885v-1.005h.89v-.997h.886V9.997h.89V5.003h-.89V4Z"/><path fill="#fff" d="M13.758 14.998h-.89v1.004h.89v-1.004ZM12.868 13.003h-.885v.998h.885v-.998ZM12.868 16.002H9.322v.997h3.546v-.997ZM10.207 13.003h-.885v.998h.885v-.998ZM9.322 14.998H8.43v1.004h.891v-1.004ZM8.431 1.998h-1.77V3h1.77V1.998ZM6.66 11.001h-.89v10.001h.891V11.002ZM6.66 3.002h-.89v.997h.89v-.997ZM5.77 9.997h-.884V11h.885V9.997ZM5.77 4h-.884v1.003h.885V4ZM4.886 5.003H4v4.994h.886V5.003Z"/></svg>