<svg xmlns="http://www.w3.org/2000/svg" width="21" height="23" fill="none"><path fill="#fff" d="M4.859 14.998h.859v-8h.862v-.997h2.582v.997h.865v1.004h1.723V6.998h.865v-.997h.859v.997h.859v8h.864V6h.86V3.999h-.86v-.997h-.864V1.998h-.86V1H6.58v.998h-.862v1.004h-.859v.997H4v2.002h.859v8.997Zm5.168-13h1.723v1.004h.865v.997h.859v1.004h-.86V4h-.864v-.997h-1.723V1.998Z"/><path fill="#fff" d="M14.33 14.998h-.859v1.004h.859v-1.004ZM6.582 16.002v.997h1.724v4.004h.859v-4.004h1.724v4.004h.859v-4.004h1.723v-.997H6.582ZM12.612 11.999h-.864v1.004h.864v-1.004ZM11.748 9.997h-.86v1.004h.86V9.997ZM11.748 13.003H8.306V14h3.442v-.997ZM10.889 21.003H9.165V22h1.724v-.997ZM9.165 9.997h-.859v1.004h.859V9.997ZM8.306 11.999h-.865v1.004h.865v-1.004ZM6.582 14.998h-.864v1.004h.864v-1.004Z"/></svg>