<svg xmlns="http://www.w3.org/2000/svg" width="30" height="23" fill="none"><path fill="#fff" d="M24.212 5.575H22.19V4.428h-2.016v-1.14H18.15V2.14h-2.024V1h-2.023v1.14h-1.008v3.435h3.031v1.14h2.023v1.14h2.024v1.147h2.016v1.14h1.015v-1.14h1.008v3.428h1.015V6.715h-1.015v-1.14ZM24.211 12.43h-2.023v1.14h2.023v-1.14ZM22.188 13.57h-2.016v1.148h2.017V13.57Z"/><path fill="#fff" d="M22.19 10.143h-2.018v1.14h2.017v-1.14ZM20.172 14.718H18.15v1.14h2.023v-1.14Z"/><path fill="#fff" d="M20.172 11.283H18.15v1.147h2.023v-1.147ZM18.15 9.002h-2.023v2.28h2.022v-2.28ZM18.15 15.858h-2.023v1.14h2.023v-1.14ZM18.15 12.43h-2.023v1.14h2.023v-1.14ZM16.125 16.998h-2.023v1.147h2.023v-1.147ZM16.125 13.57h-2.023v1.148h2.023V13.57ZM15.117 10.143h-1.015v1.14h1.015v-1.14ZM15.118 6.715h-2.023v2.287h2.023V6.715ZM14.102 18.145h-2.016v1.14h2.017l-.001-1.14ZM14.102 14.718h-2.016v1.14h2.017l-.001-1.14ZM13.095 10.143h-2.023v2.287h2.023v-2.287ZM13.095 5.575h-1.009v1.14h1.009v-1.14ZM12.087 13.57h-1.015v1.148h1.015V13.57ZM12.087 6.715h-1.015v1.14h1.015v-1.14ZM12.086 19.285h-2.023v1.148h2.023v-1.148ZM12.086 15.858h-2.023v1.14h2.023v-1.14ZM11.072 7.855h-1.009v1.147h1.008l.001-1.147ZM10.062 13.57H8.039v2.288h2.023V13.57ZM10.062 11.282H9.048v1.148h1.014v-1.148ZM10.063 9.002H9.048v1.14h1.014l.001-1.14ZM10.062 20.433H6.016v1.14h4.046v-1.14ZM10.062 16.998H8.039v1.147h2.023v-1.147ZM9.048 10.142h-1.01v1.14h1.01v-1.14ZM8.04 11.282H7.032v1.148H8.04v-1.148ZM8.04 19.285v-1.14H5.01v2.288h1.008v-1.148H8.04ZM7.03 14.718H6.017v1.14H7.03v-1.14ZM7.032 12.43H6.016v1.14H7.03v-1.14ZM6.017 13.57H5.01v1.148h1.008V13.57ZM5.009 14.718H4v3.427h1.009v-3.427Z"/></svg>