<svg xmlns="http://www.w3.org/2000/svg" width="90" height="90" fill="none"><path fill="#FFA100" d="M8.578 58.041h25.494v12.68H8.578zM55.928 58.041h25.494v12.68H55.928z"/><path fill="#000001" d="M90 23.583h-4.275v8.55H90v-8.55ZM77.147 40.71h4.275v17.157H51.44v4.29h4.275v4.274H51.44v4.303h29.982v8.579h4.303v-47.18h-8.578v8.578ZM64.294 66.418H59.99v-4.26h4.304v4.26Zm17.128 0h-8.578v-4.26h8.578v4.26Z"/><path fill="#000001" d="M81.422 27.858v-4.275h4.303V19.28h-8.578v4.303h-4.303v8.55h4.303v-4.275h4.275ZM47.138 79.299v-4.304h-4.276v4.303H8.578v4.275h72.844V79.3H47.138Z"/><path fill="#FFA100" d="M59.99 44.986v4.303h4.304v4.275h4.275V49.29h4.275v-4.303h4.303V40.71h-4.303v-4.275h-4.275v-4.303h-4.275v4.303H59.99v4.275h-4.275v4.275h4.275Z"/><path fill="#000001" d="M55.715 36.436H51.44v4.275h4.275v-4.275ZM55.715 10.701H51.44v12.882h4.275V10.7ZM51.44 70.72h-4.302v4.275h4.303V70.72ZM51.44 53.564h-4.302v4.303h4.303v-4.303ZM51.44 32.133h-4.302v4.303h4.303v-4.303Z"/><path fill="#FFA100" d="M47.137 62.142h-4.275v4.275h4.275v-4.275Z"/><path fill="#000001" d="M47.137 49.29h-4.275v4.274h4.275V49.29ZM47.138 27.858h4.303v-4.275H38.56v4.275h4.303v4.275h4.275v-4.275Z"/><path fill="#FFA100" d="M47.137 15.005h-4.275v4.275h4.275v-4.275Z"/><path fill="#000001" d="M51.44 6.427H38.56V10.7h12.88V6.427ZM42.863 70.72H38.56v4.275h4.303V70.72ZM42.863 53.564H38.56v4.303h4.303v-4.303ZM42.863 32.133H38.56v4.303h4.303v-4.303ZM38.56 36.436h-4.276v4.275h4.275v-4.275ZM38.56 10.701h-4.276v12.882h4.275V10.7Z"/><path fill="#FFA100" d="M17.157 44.986v4.303h4.275v4.275h4.275V49.29h4.303v-4.303h4.275V40.71H30.01v-4.275h-4.303v-4.303h-4.275v4.303h-4.275v4.275h-4.303v4.275h4.303Z"/><path fill="#000001" d="M8.579 27.858h4.274v4.275h4.304v-8.55h-4.303V19.28H4.274v4.303H8.58v4.275ZM38.56 70.72v-4.303h-4.275v-4.26h4.275V57.88H8.579V40.725h4.274v-8.578H4.276v47.165H8.58v-8.578l29.98-.014Zm-12.853-8.564h4.303v4.275h-4.303v-4.275Zm-17.128 0h8.578v4.275H8.579v-4.275Z"/><path fill="#000001" d="M4.275 23.583H0v8.55h4.275v-8.55Z"/></svg>