<svg xmlns="http://www.w3.org/2000/svg" width="70" height="70" fill="none"><g clip-path="url(#a)"><path fill="#000001" d="M66.653 36.662h-3.325v3.347h3.325v9.997H3.325V40.01H6.65v-3.347H3.325v-9.996H0v36.662h3.325v-6.65h63.328v6.65H70V26.665h-3.347v9.997Z"/><path fill="#000001" d="M66.653 63.328h-3.325v3.347h3.325v-3.347ZM66.653 23.34h-3.325v3.326h3.325V23.34ZM63.328 29.99h-3.347v3.348h3.347V29.99ZM63.328 66.675H6.65V70h56.678v-3.325ZM63.328 40.01H53.33v3.324h9.997V40.01ZM53.331 36.663h-3.347v3.347h3.347v-3.347ZM49.984 0H46.66v3.325h3.325V0ZM46.659 26.666h-3.325v3.325h3.325v-3.325ZM49.984 40.01H36.662v3.324h13.322V40.01ZM36.662 36.663h-3.347v3.347h3.347v-3.347ZM36.662 0h-3.347v3.325h3.347V0ZM26.665 26.666h-3.347v3.325h3.347v-3.325ZM33.316 40.01H19.994v3.324h13.322V40.01ZM23.32 0h-3.326v3.325h3.325V0ZM19.993 36.663h-3.346v3.347h3.346v-3.347ZM63.328 23.34v-3.346H49.986V6.672H46.66v13.322h-9.997V6.672h-3.347v13.322h-9.997V6.672h-3.325v13.322H6.65v3.347h56.678ZM16.647 40.01H6.65v3.324h9.997V40.01ZM9.997 29.99H6.65v3.348h3.347V29.99ZM6.65 63.328H3.325v3.347H6.65v-3.347ZM6.65 23.34H3.325v3.326H6.65V23.34Z"/><path fill="#FFA100" d="M3.324 57.172v-7.18h63.328v7.18zM19.981 6.662h3.357v13.347h-3.357zM33.306 6.662h3.357v13.347h-3.357zM46.643 6.672H50v13.347h-3.357z"/></g><defs><clipPath id="a"><path fill="#fff" d="M0 0h70v70H0z"/></clipPath></defs></svg>