<svg xmlns="http://www.w3.org/2000/svg" width="70" height="70" fill="none"><path fill="#000001" d="M70 28.317h-3.347v20.016H70V28.317ZM66.653 24.992h-3.325v3.325h3.325v-3.325ZM66.653 48.333h-6.672v3.325h6.672v-3.325ZM63.328 21.667h-3.347v3.325h3.347v-3.325ZM59.981 51.658h-9.997v3.347h9.997v-3.347ZM59.981 18.32h-9.997v3.347h9.997V18.32ZM49.984 48.333h-6.65v3.325h6.65v-3.325ZM49.984 14.995H46.66v3.325h3.325v-3.325Z"/><path fill="#FFA100" d="M39.987 31.664h-3.325v-3.347h-6.671v-3.325h6.672v-3.325H23.319v3.325h-3.325v3.325h-3.347v10.019h3.347v3.325h3.325v3.325h13.344v-3.325h3.325v-3.325h3.346V28.317h-3.347v3.347Z"/><path fill="#000001" d="M43.334 51.658H33.316v3.347h10.018v-3.347Z"/><path fill="#FFA100" d="M39.987 24.992h-3.325v3.325h3.325v-3.325Z"/><path fill="#000001" d="M46.66 11.67H29.99v3.325h16.67V11.67ZM33.316 55.005H19.994v3.325h13.322v-3.325Z"/><path fill="#000001" d="M29.99 14.995h-9.996v3.325h9.997v-3.325ZM19.994 51.658h-6.672v3.347h6.672v-3.347ZM19.994 18.32h-3.347v3.347h3.347V18.32ZM16.647 21.667h-6.65v3.325h6.65v-3.325ZM13.322 48.333H6.65v3.325h6.672v-3.325ZM9.997 24.992H6.65v3.325h3.347v-3.325ZM6.65 44.986H3.325v3.347H6.65v-3.347ZM6.65 28.317H3.325v6.672H6.65v-6.672ZM3.325 34.99H0v9.996h3.325v-9.997Z"/></svg>