<svg width="71" height="70" viewBox="0 0 71 70" fill="none" xmlns="http://www.w3.org/2000/svg">
<g clip-path="url(#clip0_1231_650)">
<path d="M67.1238 36.6624H63.7988V40.0093H67.1238V50.0062H3.7957V40.0093H7.1207V36.6624H3.7957V26.6655H0.470703V63.328H3.7957V56.678H67.1238V63.328H70.4707V26.6655H67.1238V36.6624Z" fill="#000001"/>
<path d="M67.1238 63.3281H63.7988V66.675H67.1238V63.3281Z" fill="#000001"/>
<path d="M67.1238 23.3408H63.7988V26.6658H67.1238V23.3408Z" fill="#000001"/>
<path d="M63.798 29.9907H60.4512V33.3376H63.798V29.9907Z" fill="#000001"/>
<path d="M63.7992 66.6748H7.12109V69.9998H63.7992V66.6748Z" fill="#000001"/>
<path d="M63.7996 40.0093H53.8027V43.3343H63.7996V40.0093Z" fill="#000001"/>
<path d="M53.802 36.6626H50.4551V40.0095H53.802V36.6626Z" fill="#000001"/>
<path d="M50.4559 0H47.1309V3.325H50.4559V0Z" fill="#000001"/>
<path d="M47.1297 26.6655H43.8047V29.9905H47.1297V26.6655Z" fill="#000001"/>
<path d="M50.4547 40.0093H37.1328V43.3343H50.4547V40.0093Z" fill="#000001"/>
<path d="M37.134 36.6626H33.7871V40.0095H37.134V36.6626Z" fill="#000001"/>
<path d="M37.134 0H33.7871V3.325H37.134V0Z" fill="#000001"/>
<path d="M27.1359 26.6655H23.7891V29.9905H27.1359V26.6655Z" fill="#000001"/>
<path d="M33.7867 40.0093H20.4648V43.3343H33.7867V40.0093Z" fill="#000001"/>
<path d="M23.7898 0H20.4648V3.325H23.7898V0Z" fill="#000001"/>
<path d="M20.4641 36.6626H17.1172V40.0095H20.4641V36.6626Z" fill="#000001"/>
<path d="M63.7992 23.3406V19.9938H50.4555V6.67188H47.1305V19.9938H37.1336V6.67188H33.7867V19.9938H23.7898V6.67188H20.4648V19.9938H7.12109V23.3406H63.7992Z" fill="#000001"/>
<path d="M17.118 40.0093H7.12109V43.3343H17.118V40.0093Z" fill="#000001"/>
<path d="M10.468 29.9907H7.12109V33.3376H10.468V29.9907Z" fill="#000001"/>
<path d="M7.11992 63.3281H3.79492V66.675H7.11992V63.3281Z" fill="#000001"/>
<path d="M7.11992 23.3408H3.79492V26.6658H7.11992V23.3408Z" fill="#000001"/>
<rect x="3.79492" y="57.1719" width="7.1812" height="63.3285" transform="rotate(-90 3.79492 57.1719)" fill="#FFA100"/>
<rect x="20.4531" y="6.66211" width="3.3574" height="13.3474" fill="#FFA100"/>
<rect x="33.7754" y="6.66211" width="3.3574" height="13.3474" fill="#FFA100"/>
<rect x="47.1133" y="6.67139" width="3.3574" height="13.3474" fill="#FFA100"/>
</g>
<defs>
<clipPath id="clip0_1231_650">
<rect width="70" height="70" fill="white" transform="translate(0.470703)"/>
</clipPath>
</defs>
</svg>
